<?xml version="1.0" encoding="utf-8"?>
<!-- Generator: Adobe Illustrator 19.0.0, SVG Export Plug-In . SVG Version: 6.00 Build 0)  -->
<svg version="1.1" id="Layer_1" xmlns="http://www.w3.org/2000/svg" xmlns:xlink="http://www.w3.org/1999/xlink" x="0px" y="0px"
	 viewBox="0 0 512 512" style="enable-background:new 0 0 512 512;" xml:space="preserve">
<style type="text/css">
	.st0{fill:#CF453D;}
	.st1{fill:#FFFFFF;}
</style>
<circle id="XMLID_1_" class="st0" cx="256" cy="256" r="250"/>
<path id="XMLID_46_" class="st1" d="M377.6,169.5c-4.1,16.3-15.2,28.1-25.4,40.6c-28.6,35.5-57.2,71-85.7,106.5
	c-9.6,12-19.4,23.8-30.7,34.3c-3,2.8-6.3,5.2-9.7,7.6c-9.2,6.3-18.9,6.4-28.4,1c-4.6-2.6-9.1-5.8-13-9.5
	c-15.4-14.8-29.1-31.1-39.5-49.9c-5.2-9.5-9.2-19.4-10.4-30.3c0-0.4-0.2-0.7-0.4-1.1c0-2.5,0-5.1,0-7.6c0.1-0.3,0.3-0.6,0.4-0.9
	c1.2-8.1,7.1-11.5,15.6-9.3c7.5,1.9,14.1,5.8,19.7,11c10.1,9.5,20,19.4,29.9,29.1c3.9,3.8,7.9,7.6,11.5,11.1
	c3.5-4.8,6.9-10.2,11-14.9c6.8-7.8,14.2-15.1,21.3-22.7c24.8-26.6,49.5-53.4,73.2-81c7.8-9,16.2-17.5,24.8-25.8
	c3.4-3.3,7.8-6,12.3-7.9c8.9-3.9,19.7,1.7,22.6,10.9c0.3,0.8,0.6,1.6,0.8,2.4C377.6,165.3,377.6,167.4,377.6,169.5z M151.9,264.1
	c0.1-0.3,0.2-0.7,0.3-1c-1.6-0.4-3.2-0.8-4.8-1.2c-0.1,0.3-0.2,0.6-0.2,0.9C148.8,263.2,150.3,263.7,151.9,264.1z"/>
</svg>
