<?xml version="1.0" encoding="utf-8"?>
<!-- Generator: Adobe Illustrator 19.0.0, SVG Export Plug-In . SVG Version: 6.00 Build 0)  -->
<svg version="1.1" id="Layer_1" xmlns="http://www.w3.org/2000/svg" xmlns:xlink="http://www.w3.org/1999/xlink" x="0px" y="0px"
	 viewBox="0 0 512 512" style="enable-background:new 0 0 512 512;" xml:space="preserve">
<style type="text/css">
	.st0{fill:#CF453D;}
	.st1{fill:#FFFFFF;}
</style>
<circle id="XMLID_1_" class="st0" cx="256" cy="256" r="250"/>
<path id="XMLID_18_" class="st1" d="M377,285.9l-1.5,0.8c-6.5-7.8-17.8-10.9-26.3-6.5l-0.1,0l-3.7,2c-9.3-7.8-22.5-9-33-2.9
	L292,290.3h-27.1c-5.9,0-11.6-1.3-16.9-3.9l-3.7-1.8c-21.7-10.6-47.5-8-66.8,6.5c-0.1,0.1-0.2,0.1-0.3,0.2l-9,8
	c-3.4,3-7.3,5.2-11.6,6.5l-5.1-16.7c-0.5-1.8-2.2-3-4-3H104c-2.3,0-4.2,1.9-4.2,4.2c0,0.2,0,0.3,0,0.5l14.5,119.1
	c0.3,2.1,2,3.7,4.2,3.7h65.3c2.3,0,4.2-1.9,4.2-4.2c0-0.4-0.1-0.8-0.2-1.2l-8.6-28.1l26.6-16.8c3.5-2,7.7-2.5,11.6-1.5
	c0.1,0,0.2,0,0.3,0.1l54.4,10c14.8,2.6,30.1,0.5,43.6-6.2c0.2-0.1,0.3-0.2,0.5-0.3l94.1-64.6c1.8-1.3,2.4-3.7,1.2-5.6
	C404.5,283.4,389.2,279.3,377,285.9z M353,287.6c4.8-2.4,10.9-0.5,14.8,3.2L332.3,310l-1.9,1c-1.1-3.1-2.7-6-4.7-8.6L353,287.6z
	 M316.4,286.6L316.4,286.6c6.5-3.7,14.4-3.7,20.7,0l-17.8,9.6c-3.4-2.4-7.2-4.2-11.2-5.1L316.4,286.6z M122.2,405.4l-13.5-110.7
	h35.7l33.7,110.7H122.2z M311.8,358.5c-11.8,5.7-25.1,7.6-38.1,5.3l-54.2-10c-6-1.5-12.3-0.6-17.7,2.4c-0.1,0-0.1,0.1-0.2,0.1
	l-24.8,15.7l-17.7-58c5.5-1.7,10.5-4.5,14.7-8.3l8.9-7.9c16.7-12.6,39.1-14.7,57.9-5.6l3.7,1.8c6.4,3.1,13.4,4.7,20.6,4.7h36.2
	c10.8,0,20.1,7.7,22.3,18.3l-26-1.2c-9.5-0.4-19.1,0-28.6,1.3c-2.3,0.3-3.9,2.4-3.6,4.7c0.3,2.3,2.4,3.9,4.7,3.6
	c9-1.2,18-1.7,27-1.2l30.9,1.4c0.1,0,0.1,0,0.2,0c2.3,0,4.2-1.9,4.2-4.2c0-0.6,0-1.3-0.1-1.9l4.2-2.2l44.7-24.1
	c6.9-3.8,15.6-2.4,21,3.3L311.8,358.5z"/>
<path id="XMLID_15_" class="st1" d="M134.9,388.7c0,7.1,5.8,12.9,12.9,12.9c7.1,0,12.9-5.8,12.9-12.9c0-7.1-5.8-12.9-12.9-12.9
	c0,0,0,0,0,0C140.6,375.8,134.9,381.6,134.9,388.7z M147.8,384.2c2.5,0,4.5,2,4.5,4.5c0,2.5-2,4.5-4.5,4.5c-2.5,0-4.5-2-4.5-4.5
	c0,0,0,0,0,0C143.3,386.2,145.3,384.2,147.8,384.2L147.8,384.2z"/>
<path id="XMLID_12_" class="st1" d="M256,259.8c41,0,74.2-33.2,74.2-74.2S297,111.4,256,111.4s-74.2,33.2-74.2,74.2
	C181.9,226.6,215,259.7,256,259.8z M256,119.8c36.3,0,65.8,29.5,65.8,65.8s-29.5,65.8-65.8,65.8s-65.8-29.5-65.8-65.8
	C190.3,149.3,219.7,119.9,256,119.8L256,119.8z"/>
<path id="XMLID_11_" class="st1" d="M246.7,185.3h-0.2l-12.4-0.1h0c-2.3,0-4.2,1.9-4.2,4.2c0,1.1,0.5,2.2,1.3,3l30.8,29.7
	c1.7,1.6,4.3,1.6,5.9-0.1c1.6-1.7,1.6-4.3-0.1-5.9l0,0l-23.2-22.4l1.9,0c11,0.1,20.5-7.6,22.7-18.4l8.6,0.1h0c2.3,0,4.2-1.9,4.2-4.2
	c0-2.3-1.9-4.2-4.2-4.2l-8.6-0.1c-0.7-3.8-2.3-7.3-4.7-10.3l13.3,0.1h0c2.3,0,4.2-1.9,4.2-4.2c0-2.3-1.9-4.2-4.2-4.2l-31.1-0.3
	l-12.4-0.1c-2.3,0-4.2,1.8-4.2,4.2c0,2.3,1.8,4.2,4.2,4.2l12.4,0.1c6.4,0.1,11.9,4.3,13.7,10.4l-26.3-0.3h0c-2.3,0-4.2,1.9-4.2,4.2
	s1.9,4.2,4.2,4.2l26.3,0.3C258.6,181.2,253,185.3,246.7,185.3z"/>
<path id="XMLID_10_" class="st1" d="M359.1,145.6c-2.3,0-4.2,1.9-4.2,4.2v7c0,2.3,1.9,4.2,4.2,4.2c2.3,0,4.2-1.9,4.2-4.2v-7
	C363.3,147.5,361.4,145.6,359.1,145.6z"/>
<path id="XMLID_9_" class="st1" d="M359.1,166.6c-2.3,0-4.2,1.9-4.2,4.2v7c0,2.3,1.9,4.2,4.2,4.2c2.3,0,4.2-1.9,4.2-4.2v-7
	C363.3,168.5,361.4,166.6,359.1,166.6z"/>
<path id="XMLID_8_" class="st1" d="M345.1,159.6c-2.3,0-4.2,1.9-4.2,4.2c0,2.3,1.9,4.2,4.2,4.2h7c2.3,0,4.2-1.9,4.2-4.2
	c0-2.3-1.9-4.2-4.2-4.2H345.1z"/>
<path id="XMLID_7_" class="st1" d="M373.1,168c2.3,0,4.2-1.9,4.2-4.2c0-2.3-1.9-4.2-4.2-4.2h-7c-2.3,0-4.2,1.9-4.2,4.2
	c0,2.3,1.9,4.2,4.2,4.2H373.1z"/>
<path id="XMLID_6_" class="st1" d="M175,98.2c-2.3,0-4.2,1.9-4.2,4.2l0,0v7c0,2.3,1.9,4.2,4.2,4.2s4.2-1.9,4.2-4.2v-7
	C179.2,100.1,177.3,98.2,175,98.2L175,98.2z"/>
<path id="XMLID_5_" class="st1" d="M175,119.2c-2.3,0-4.2,1.9-4.2,4.2v7c0,2.3,1.9,4.2,4.2,4.2s4.2-1.9,4.2-4.2v-7
	C179.2,121.1,177.3,119.2,175,119.2z"/>
<path id="XMLID_4_" class="st1" d="M161,112.2c-2.3,0-4.2,1.9-4.2,4.2c0,2.3,1.9,4.2,4.2,4.2h7c2.3,0,4.2-1.9,4.2-4.2
	c0-2.3-1.9-4.2-4.2-4.2H161z"/>
<path id="XMLID_3_" class="st1" d="M189,112.2h-7c-2.3,0-4.2,1.9-4.2,4.2c0,2.3,1.9,4.2,4.2,4.2h7c2.3,0,4.2-1.9,4.2-4.2
	C193.2,114.1,191.3,112.2,189,112.2z"/>
</svg>
