<?xml version="1.0" encoding="utf-8"?>
<!-- Generator: Adobe Illustrator 16.0.0, SVG Export Plug-In . SVG Version: 6.00 Build 0)  -->
<!DOCTYPE svg PUBLIC "-//W3C//DTD SVG 1.1//EN" "http://www.w3.org/Graphics/SVG/1.1/DTD/svg11.dtd">
<svg version="1.1" id="Layer_1" xmlns="http://www.w3.org/2000/svg" xmlns:xlink="http://www.w3.org/1999/xlink" x="0px" y="0px"
	 width="720px" height="504px" viewBox="0 0 720 504" enable-background="new 0 0 720 504" xml:space="preserve">
<circle id="XMLID_1_" fill="#CF453D" cx="365.001" cy="251.886" r="246.094"/>
<path id="XMLID_18_" display="none" fill="#FFFFFF" d="M479.109,281.433l-1.477,0.788c-6.398-7.679-17.521-10.73-25.889-6.398
	h-0.099l-3.643,1.969c-9.154-7.679-22.148-8.859-32.484-2.855l-20.081,10.828h-26.677c-5.808,0-11.418-1.279-16.636-3.839
	l-3.642-1.771c-21.361-10.435-46.758-7.875-65.756,6.398c-0.099,0.099-0.197,0.099-0.295,0.196l-8.859,7.875
	c-3.347,2.953-7.186,5.119-11.418,6.398l-5.021-16.438c-0.492-1.772-2.166-2.953-3.938-2.953h-42.82
	c-2.264,0-4.134,1.87-4.134,4.134c0,0.197,0,0.296,0,0.492l14.273,117.239c0.295,2.067,1.969,3.643,4.134,3.643h64.28
	c2.264,0,4.134-1.87,4.134-4.135c0-0.394-0.099-0.787-0.197-1.181l-8.466-27.661l26.185-16.538c3.445-1.969,7.58-2.461,11.418-1.477
	c0.099,0,0.197,0,0.295,0.099l53.55,9.844c14.568,2.56,29.63,0.492,42.919-6.103c0.196-0.099,0.295-0.197,0.492-0.296l92.629-63.591
	c1.772-1.279,2.363-3.642,1.182-5.512C506.18,278.972,491.119,274.936,479.109,281.433z M455.484,283.106
	c4.725-2.362,10.729-0.492,14.568,3.149l-34.945,18.9l-1.87,0.984c-1.083-3.052-2.657-5.906-4.626-8.466L455.484,283.106z
	 M419.456,282.122L419.456,282.122c6.398-3.643,14.175-3.643,20.377,0l-17.522,9.45c-3.347-2.363-7.087-4.135-11.024-5.021
	L419.456,282.122z M228.291,399.065l-13.289-108.97h35.142l33.174,108.97H228.291L228.291,399.065z M414.928,352.898
	c-11.615,5.611-24.707,7.481-37.504,5.217l-53.354-9.844c-5.906-1.477-12.108-0.59-17.423,2.363c-0.099,0-0.099,0.098-0.197,0.098
	l-24.413,15.455l-17.423-57.094c5.414-1.674,10.336-4.43,14.47-8.17l8.761-7.777c16.439-12.402,38.489-14.47,56.996-5.512
	l3.642,1.771c6.3,3.052,13.191,4.627,20.278,4.627h35.635c10.631,0,19.786,7.579,21.951,18.014l-25.594-1.182
	c-9.352-0.394-18.802,0-28.153,1.28c-2.264,0.295-3.839,2.362-3.543,4.626c0.295,2.265,2.362,3.84,4.626,3.544
	c8.859-1.181,17.719-1.673,26.578-1.181l30.417,1.378c0.099,0,0.099,0,0.197,0c2.264,0,4.135-1.87,4.135-4.135
	c0-0.591,0-1.279-0.099-1.87l4.134-2.166l44.002-23.723c6.792-3.741,15.356-2.363,20.672,3.248L414.928,352.898z"/>
<path id="XMLID_15_" display="none" fill="#FFFFFF" d="M240.792,382.627c0,6.988,5.709,12.698,12.699,12.698
	c6.989,0,12.698-5.71,12.698-12.698c0-6.989-5.709-12.699-12.698-12.699l0,0C246.403,369.928,240.792,375.638,240.792,382.627z
	 M253.491,378.197c2.461,0,4.43,1.969,4.43,4.43s-1.969,4.43-4.43,4.43s-4.43-1.969-4.43-4.43l0,0
	C249.061,380.166,251.03,378.197,253.491,378.197L253.491,378.197z"/>
<path id="XMLID_12_" display="none" fill="#FFFFFF" d="M360,255.74c40.359,0,73.041-32.681,73.041-73.04
	S400.359,109.659,360,109.659s-73.041,32.682-73.041,73.041C287.058,223.06,319.641,255.643,360,255.74z M360,117.928
	c35.732,0,64.771,29.039,64.771,64.772c0,35.732-29.039,64.771-64.771,64.771c-35.733,0-64.772-29.039-64.772-64.771
	C295.327,146.967,324.267,118.026,360,117.928L360,117.928z"/>
<path id="XMLID_11_" display="none" fill="#FFFFFF" d="M350.845,182.405h-0.197l-12.206-0.099l0,0c-2.264,0-4.135,1.871-4.135,4.134
	c0,1.083,0.492,2.166,1.28,2.953l30.319,29.236c1.674,1.575,4.232,1.575,5.808-0.099s1.575-4.233-0.099-5.808l0,0l-22.837-22.05
	h1.87c10.828,0.099,20.18-7.481,22.346-18.112l8.465,0.098l0,0c2.265,0,4.135-1.87,4.135-4.134s-1.87-4.134-4.135-4.134
	l-8.465-0.099c-0.689-3.74-2.265-7.186-4.627-10.139l13.092,0.098l0,0c2.265,0,4.135-1.87,4.135-4.134s-1.87-4.134-4.135-4.134
	l-30.614-0.295l-12.206-0.099c-2.264,0-4.134,1.772-4.134,4.135c0,2.264,1.771,4.134,4.134,4.134l12.206,0.098
	c6.3,0.099,11.714,4.233,13.486,10.238l-25.889-0.295l0,0c-2.264,0-4.135,1.87-4.135,4.134s1.871,4.134,4.135,4.134l25.889,0.295
	C362.56,178.369,357.047,182.405,350.845,182.405z"/>
<path id="XMLID_10_" display="none" fill="#FFFFFF" d="M461.489,143.325c-2.265,0-4.135,1.87-4.135,4.134v6.891
	c0,2.264,1.87,4.134,4.135,4.134c2.264,0,4.134-1.87,4.134-4.134v-6.891C465.623,145.195,463.753,143.325,461.489,143.325z"/>
<path id="XMLID_9_" display="none" fill="#FFFFFF" d="M461.489,163.997c-2.265,0-4.135,1.87-4.135,4.134v6.891
	c0,2.264,1.87,4.134,4.135,4.134c2.264,0,4.134-1.87,4.134-4.134v-6.891C465.623,165.867,463.753,163.997,461.489,163.997z"/>
<path id="XMLID_8_" display="none" fill="#FFFFFF" d="M447.708,157.106c-2.265,0-4.135,1.87-4.135,4.134s1.87,4.134,4.135,4.134
	h6.891c2.264,0,4.134-1.87,4.134-4.134s-1.87-4.134-4.134-4.134H447.708z"/>
<path id="XMLID_7_" display="none" fill="#FFFFFF" d="M475.271,165.375c2.264,0,4.134-1.87,4.134-4.134s-1.87-4.134-4.134-4.134
	h-6.891c-2.265,0-4.135,1.87-4.135,4.134s1.87,4.134,4.135,4.134H475.271z"/>
<path id="XMLID_6_" display="none" fill="#FFFFFF" d="M280.266,96.666c-2.264,0-4.134,1.871-4.134,4.134l0,0v6.891
	c0,2.264,1.87,4.135,4.134,4.135s4.134-1.871,4.134-4.135V100.8C284.4,98.536,282.53,96.666,280.266,96.666L280.266,96.666z"/>
<path id="XMLID_5_" display="none" fill="#FFFFFF" d="M280.266,117.337c-2.264,0-4.134,1.871-4.134,4.134v6.891
	c0,2.264,1.87,4.135,4.134,4.135s4.134-1.871,4.134-4.135v-6.891C284.4,119.208,282.53,117.337,280.266,117.337z"/>
<path id="XMLID_4_" display="none" fill="#FFFFFF" d="M266.484,110.447c-2.264,0-4.134,1.871-4.134,4.134
	c0,2.264,1.87,4.135,4.134,4.135h6.891c2.264,0,4.134-1.871,4.134-4.135c0-2.264-1.87-4.134-4.134-4.134H266.484z"/>
<path id="XMLID_3_" display="none" fill="#FFFFFF" d="M294.047,110.447h-6.891c-2.264,0-4.134,1.871-4.134,4.134
	c0,2.264,1.87,4.135,4.134,4.135h6.891c2.264,0,4.134-1.871,4.134-4.135C298.181,112.317,296.311,110.447,294.047,110.447z"/>
<path fill="#FFFFFF" d="M506.867,337.105c-11.523-11.522-39.195-28.848-52.836-35.354c-15.834-7.604-21.635-7.447-32.846,0.627
	c-9.328,6.742-15.363,13.013-26.104,10.661c-10.74-2.273-31.904-18.343-52.443-38.804c-20.539-20.538-36.53-41.705-38.804-52.444
	c-2.273-10.818,3.998-16.775,10.661-26.104c8.075-11.209,8.31-17.011,0.627-32.846c-6.506-13.718-23.752-41.312-35.354-52.835
	c-11.523-11.523-14.11-9.015-20.46-6.742c0,0-9.407,3.763-18.735,9.956c-11.523,7.683-17.952,14.11-22.499,23.752
	c-4.468,9.643-9.642,27.594,16.698,74.472c21.244,37.863,42.096,66.554,73.06,97.44l0.079,0.079l0.078,0.078
	c30.964,30.965,59.577,51.816,97.44,73.061c46.877,26.339,64.83,21.166,74.471,16.697c9.643-4.469,16.07-10.896,23.752-22.498
	c6.193-9.329,9.957-18.735,9.957-18.735C515.883,351.216,518.469,348.63,506.867,337.105z"/>
</svg>
