<?xml version="1.0" encoding="utf-8"?>
<!-- Generator: Adobe Illustrator 19.0.0, SVG Export Plug-In . SVG Version: 6.00 Build 0)  -->
<svg version="1.1" id="Layer_1" xmlns="http://www.w3.org/2000/svg" xmlns:xlink="http://www.w3.org/1999/xlink" x="0px" y="0px"
	 viewBox="0 0 512 512" style="enable-background:new 0 0 512 512;" xml:space="preserve">
<style type="text/css">
	.st0{fill:#CF453D;}
	.st1{fill:#FFFFFF;}
</style>
<g id="XMLID_3_">
	<rect id="XMLID_4_" x="264.2" y="348.2" class="st0" width="21.3" height="38.1"/>
	<path id="XMLID_33_" class="st0" d="M221.3,148.3c-8.7,0-15.8,7.1-15.8,15.8c0,0,0,20.6,0,20.6c0,8.7,7.1,15.8,15.8,15.8
		c8.7,0,15.8-7.1,15.8-15.8v-20.6C237.1,155.4,230,148.3,221.3,148.3z"/>
	<path id="XMLID_34_" class="st0" d="M221.3,247.2c-2.2,0-3.9,1.8-3.9,3.9v48.4c0,2.2,1.8,3.9,3.9,3.9s3.9-1.8,3.9-3.9v-48.4
		C225.2,249,223.4,247.2,221.3,247.2z"/>
	<rect id="XMLID_38_" x="244.6" y="348.2" class="st0" width="5.8" height="18.4"/>
	<path id="XMLID_39_" class="st0" d="M161.5,350.9c-1.7,1.7-2.7,4-2.7,6.5c0,5.1,4.1,9.2,9.2,9.2h27.9v-18.4H168
		C165.5,348.2,163.2,349.2,161.5,350.9z"/>
	<rect id="XMLID_40_" x="209.6" y="348.2" class="st0" width="21.3" height="50.5"/>
	<path id="XMLID_41_" class="st0" d="M287.9,184.7c0,8.7,7.1,15.8,15.8,15.8c8.7,0,15.8-7.1,15.8-15.8v-3.4h-31.6V184.7z"/>
	<path id="XMLID_44_" class="st0" d="M256,6C117.9,6,6,117.9,6,256s111.9,250,250,250s250-111.9,250-250S394.1,6,256,6z
		 M366.9,373.5c0,3.8-3.1,6.9-6.9,6.9h-60.9v12.8c0,3.8-3.1,6.9-6.9,6.9h-35c-3.8,0-6.9-3.1-6.9-6.9v-12.8h-5.8v25.2
		c0,3.8-3.1,6.9-6.9,6.9h-35c-3.8,0-6.9-3.1-6.9-6.9v-25.2H168c-12.6,0-22.9-10.3-22.9-22.9c0,0,0,0,0,0l0,0V122.5
		c0-12.6,10.3-22.9,22.9-22.9h192.1c3.8,0,6.9,3.1,6.9,6.9v234.9c0,0,0,0,0,0V373.5z"/>
	<rect id="XMLID_45_" x="299.2" y="348.2" class="st0" width="54" height="18.4"/>
	<path id="XMLID_48_" class="st0" d="M353.2,113.3H168c-5.1,0-9.2,4.1-9.2,9.2v213.9c2.9-1.3,6-1.9,9.2-1.9h185.2V113.3z
		 M250.8,184.7c0,13.9-9.7,25.6-22.7,28.7v21.4c6.4,2.7,10.8,9,10.8,16.3v48.4c0,9.8-7.9,17.7-17.7,17.7c-9.8,0-17.7-7.9-17.7-17.7
		v-48.4c0-7.3,4.5-13.6,10.8-16.3v-21.4c-13-3.1-22.7-14.8-22.7-28.7v-20.6c0-16.3,13.2-29.5,29.5-29.5c16.3,0,29.5,13.3,29.5,29.5
		V184.7z M333.2,184.7c0,13.9-9.7,25.6-22.7,28.7v21.4c6.4,2.7,10.8,9,10.8,16.3v48.4c0,9.8-7.9,17.7-17.7,17.7s-17.7-7.9-17.7-17.7
		v-48.4c0-7.3,4.5-13.6,10.8-16.3v-21.4c-13-3.1-22.7-14.8-22.7-28.7v-43.3c0-3.8,3.1-6.9,6.9-6.9c3.8,0,6.9,3.1,6.9,6.9v26.1h8.9
		v-26.1c0-3.8,3.1-6.9,6.9-6.9c3.8,0,6.9,3.1,6.9,6.9v26.1h8.9v-26.1c0-3.8,3.1-6.9,6.9-6.9s6.9,3.1,6.9,6.9V184.7z"/>
	<path id="XMLID_50_" class="st0" d="M303.7,247.2c-2.2,0-3.9,1.8-3.9,3.9v48.4c0,2.2,1.8,3.9,3.9,3.9s3.9-1.8,3.9-3.9v-48.4
		C307.6,249,305.9,247.2,303.7,247.2z"/>
	<path id="XMLID_53_" class="st1" d="M366.9,106.4c0-3.8-3.1-6.9-6.9-6.9H168c-12.6,0-22.9,10.3-22.9,22.9v234.9l0,0c0,0,0,0,0,0
		c0,12.6,10.3,22.9,22.9,22.9h27.9v25.2c0,3.8,3.1,6.9,6.9,6.9h35c3.8,0,6.9-3.1,6.9-6.9v-25.2h5.8v12.8c0,3.8,3.1,6.9,6.9,6.9h35
		c3.8,0,6.9-3.1,6.9-6.9v-12.8h60.9c3.8,0,6.9-3.1,6.9-6.9v-32.1c0,0,0,0,0,0V106.4z M195.9,366.6H168c-5.1,0-9.2-4.1-9.2-9.2
		c0-2.5,1-4.8,2.7-6.5c1.7-1.7,4.1-2.7,6.5-2.7h27.9V366.6z M230.9,398.7h-21.3v-50.5h21.3V398.7z M250.5,366.6h-5.8v-18.4h5.8
		V366.6z M285.5,386.3h-21.3v-38.1h21.3V386.3z M168,334.5c-3.2,0-6.3,0.7-9.2,1.9V122.5c0-5.1,4.1-9.2,9.2-9.2h185.2v221.2H168z
		 M353.2,366.6h-54v-18.4h54V366.6z"/>
	<path id="XMLID_61_" class="st1" d="M326.4,134.6c-3.8,0-6.9,3.1-6.9,6.9v26.1h-8.9v-26.1c0-3.8-3.1-6.9-6.9-6.9
		c-3.8,0-6.9,3.1-6.9,6.9v26.1h-8.9v-26.1c0-3.8-3.1-6.9-6.9-6.9c-3.8,0-6.9,3.1-6.9,6.9v43.3c0,13.9,9.7,25.6,22.7,28.7v21.4
		c-6.4,2.7-10.8,9-10.8,16.3v48.4c0,9.8,7.9,17.7,17.7,17.7s17.7-7.9,17.7-17.7v-48.4c0-7.3-4.5-13.6-10.8-16.3v-21.4
		c13-3.1,22.7-14.8,22.7-28.7v-43.3C333.2,137.7,330.1,134.6,326.4,134.6z M307.6,299.6c0,2.2-1.8,3.9-3.9,3.9s-3.9-1.8-3.9-3.9
		v-48.4c0-2.2,1.8-3.9,3.9-3.9c2.2,0,3.9,1.8,3.9,3.9V299.6z M319.5,184.7c0,8.7-7.1,15.8-15.8,15.8c-8.7,0-15.8-7.1-15.8-15.8v-3.4
		h31.6V184.7z"/>
	<path id="XMLID_65_" class="st1" d="M221.3,134.6c-16.3,0-29.5,13.2-29.5,29.5v20.6c0,13.9,9.7,25.6,22.7,28.7v21.4
		c-6.4,2.7-10.8,9-10.8,16.3v48.4c0,9.8,7.9,17.7,17.7,17.7c9.8,0,17.7-7.9,17.7-17.7v-48.4c0-7.3-4.5-13.6-10.8-16.3v-21.4
		c13-3.1,22.7-14.8,22.7-28.7v-20.6C250.8,147.8,237.6,134.6,221.3,134.6z M225.2,299.6c0,2.2-1.8,3.9-3.9,3.9s-3.9-1.8-3.9-3.9
		v-48.4c0-2.2,1.8-3.9,3.9-3.9s3.9,1.8,3.9,3.9V299.6z M237.1,184.7c0,8.7-7.1,15.8-15.8,15.8c-8.7,0-15.8-7.1-15.8-15.8
		c0,0,0-20.6,0-20.6c0-8.7,7.1-15.8,15.8-15.8c8.7,0,15.8,7.1,15.8,15.8V184.7z"/>
</g>
</svg>
