<?xml version="1.0" encoding="utf-8"?>
<!-- Generator: Adobe Illustrator 19.0.0, SVG Export Plug-In . SVG Version: 6.00 Build 0)  -->
<svg version="1.1" id="Layer_1" xmlns="http://www.w3.org/2000/svg" xmlns:xlink="http://www.w3.org/1999/xlink" x="0px" y="0px"
	 viewBox="0 1 511 511" style="enable-background:new 0 1 511 511;" xml:space="preserve">
<style type="text/css">
	.st0{fill:none;}
	.st1{fill:#E86040;}
	.st2{fill:#2D2D2D;}
</style>
<g>
	<path class="st0" d="M108.5,231.5c-0.4-2.8-0.9-5.8-1.3-8.7C107.6,225.8,108.1,228.8,108.5,231.5z"/>
	<path class="st0" d="M110.5,242.6c-0.1-0.5-0.3-1.3-0.5-2.3C110.2,241.3,110.4,242.1,110.5,242.6z"/>
	<path class="st0" d="M110.7,243.4c0,0,0-0.2-0.1-0.5C110.6,243.2,110.7,243.4,110.7,243.4z"/>
	<path class="st0" d="M82.2,304.1c4.4,2.1,9.5,3.3,15,3.3c10.9,0,20.5,2.3,28.4,6.4c-8-4.1-17.6-6.5-28.6-6.5
		C91.5,307.3,86.6,306.1,82.2,304.1z"/>
	<path class="st0" d="M106.5,216.7c-0.3-2.8-0.4-5.3-0.4-7.2C106.1,211.5,106.2,214,106.5,216.7z"/>
	<path class="st0" d="M101.4,110.1c-0.7,0-1.3,0-2-0.1c-0.3,0-0.6,0-0.9,0c0.2,0,0.4,0,0.6,0C99.9,110,100.6,110.1,101.4,110.1z"/>
	<path class="st0" d="M293.9,68.7c5.6,1.8,11.2,3.9,16.5,6.3C305.1,72.6,299.6,70.5,293.9,68.7z"/>
	<path class="st0" d="M287,66.7c2.3,0.6,4.6,1.3,6.9,2C291.6,67.9,289.3,67.3,287,66.7z"/>
	<path class="st0" d="M152.8,398.5c-11.3-10.4-16.5-24.7-15.7-39.2c1-19.7-10.7-35.1-40.2-36.9C28.5,444.7,29.7,439,31.1,441
		c1.4,2,0.3,0.5,62.5-7.2c7.9-1,14.9,3.4,17.8,10c25.8,57.9,23.7,57.1,26,57.2c2.5,0-1,2.7,51.4-88.8
		C177.8,412.8,163.2,408.2,152.8,398.5z"/>
	<path class="st0" d="M353.2,309.3c-22.9,22.9-53.5,38.2-87.5,41.7C299.7,347.6,330.3,332.3,353.2,309.3z"/>
	<path class="st0" d="M97,109.9c0.1,0,0.3,0,0.4,0C97.3,109.9,97.2,109.9,97,109.9z"/>
	<path class="st0" d="M194.9,20.9c1.6,0.4,3.2,0.9,4.9,1.5c1.1,0.4,2.3,0.9,3.4,1.5c3.4,1.8,6.9,4.4,10.2,8c2.5,2.8,5.2,5.2,8.1,7.3
		c1.5,1,3,1.9,4.5,2.8c1.5,0.8,3.1,1.6,4.7,2.3c6.3,2.7,13.2,4.1,20,4.1c0,0,0.1,0,0.1,0c-6.7,0-13.5-1.3-19.8-4.1
		c-1.6-0.7-3.2-1.4-4.7-2.3c-1.6-0.8-3.1-1.8-4.5-2.8c-2.9-2.1-5.6-4.5-8.1-7.3c-3.3-3.7-6.8-6.2-10.2-8c-1.1-0.6-2.3-1.1-3.4-1.5
		c-1.7-0.7-3.3-1.2-4.9-1.5c-1.1-0.2-2.1-0.4-3.1-0.5c-0.3,0-0.5,0-0.8,0c0.2,0,0.3,0,0.5,0C192.8,20.5,193.8,20.7,194.9,20.9z"/>
	<path class="st0" d="M187.9,20.2C187.9,20.2,187.9,20.2,187.9,20.2C187.9,20.2,187.9,20.2,187.9,20.2
		C187.9,20.2,187.9,20.2,187.9,20.2z"/>
	<path class="st0" d="M309.4,20.3c0.2,0,0.4-0.1,0.7-0.1C309.8,20.2,309.6,20.3,309.4,20.3z"/>
	<path class="st0" d="M349,49c0,0-0.2,6.3,0.9,14.6c0.2,1.2,0.4,2.4,0.6,3.7c0.2,0.9,0.3,1.7,0.5,2.6c0.4,1.7,0.8,3.5,1.3,5.3
		c0.2,0.9,0.5,1.8,0.8,2.7c0,0.8,0.2,1.7,0.6,2.5s0.8,1.6,1.2,2.4c1,2.5,2.2,4.3,3.3,5.5l0.1,0.1c0.1,0.2,0.3,0.5,0.5,0.7
		c-0.2-0.2-0.4-0.4-0.6-0.6c6.2,8.9,15,15.5,25.1,18.9c-9.9-3.5-18.6-10.1-24.8-18.8c0.2,0.2,0.4,0.4,0.6,0.6c6.2,5.7,13-1.7,13-1.7
		l-0.1-0.1c-0.8,0.8-7.6,7.3-13.4,1.1l-0.1-0.1c-1.1-1.2-2.3-3-3.3-5.5c-0.4-0.8-0.8-1.6-1.2-2.4c-0.3-0.8-0.5-1.7-0.6-2.5
		c-0.3-0.9-0.6-1.8-0.8-2.7c-0.5-1.8-0.9-3.6-1.3-5.3c-0.2-0.9-0.4-1.8-0.5-2.6c-0.2-1.3-0.4-2.5-0.6-3.7
		c-1.1-8.4-0.9-14.7-0.9-14.7c-2.8-16.2-16.5-27.3-31.5-28.8c-1.6-0.2-3.2-0.3-4.8-0.2c0,0,0,0,0,0c1.5,0,3,0,4.5,0.2
		C332.5,21.8,346.3,32.8,349,49z"/>
	<path class="st0" d="M428.6,170.3c-0.4,0.3-0.7,0.7-1.1,1c-0.7,0.7-1.3,1.3-2,2c-20.2,20.2-19.5,53.4,1.9,72.7
		c16.3,14.8,14.3,37.9,1.5,51.1c-4.2,4.4-9.7,7.7-16.1,9.2c-7.1,1.7-10.8,0.6-16.7,1c-12.5,0.8-23.9,6.3-32.6,14.8
		c-9.5,9.5-15.3,23-14.6,38c0.5,11.1-3.6,20.3-10,26.7c-11.1,11-29.4,14-43.7,5c14.3,9.2,32.8,6.2,44-5c6.4-6.5,10.5-15.6,10-26.7
		c-0.7-15,5-28.4,14.6-38c8.4-8.4,19.8-13.9,32.2-14.7c5.9-0.4,9.6,0.7,17-0.9c6.4-1.5,11.9-4.9,16.2-9.3
		c12.9-13.3,14.8-36.3-1.5-51.1c-21.4-19.3-22-52.5-1.9-72.7c0.6-0.7,1.2-1.3,1.9-1.9c0.4-0.3,0.8-0.7,1.2-1.1
		c20.4-20.1,9-53.7-16.6-59.4C437.7,116.9,448.9,150.3,428.6,170.3z"/>
	<path class="st0" d="M268.5,186.2c2,0,3.7-1.7,3.7-3.7v-4.3h-27.4v4.3c0,2,1.7,3.7,3.7,3.7h4.7H268.5z"/>
	<path class="st0" d="M250.9,62.1c-80.6,0-146.2,66.1-144.8,147.2C104.8,128.3,170.3,62.1,250.9,62.1z"/>
	<path class="st0" d="M263.7,281.2c1.3-1.4,2-3.3,2.1-5.3l-5.5-82h-3.2l-5.5,82c-0.1,2,0.6,3.9,1.9,5.3s3.1,2.2,5.1,2.2
		C260.5,283.4,262.4,282.6,263.7,281.2z"/>
	<path class="st0" d="M380.7,206.9c0-71.5-58.2-129.7-129.7-129.7c-72.9,0-132.2,60.6-129.7,134.3c0,0,1.3,20,3.7,27
		c0.1,0.3,0.3,0.6,0.4,1c0.2,0.3,0.3,0.7,0.3,1c15.1,56.7,66.6,96.1,125.3,96.1C322.5,336.6,380.7,278.4,380.7,206.9z M303.7,168.4
		c0-18.5,9.4-35.4,25.2-45.1c1.8-1.1,4.2-0.5,5.3,1.3c0.4,0.8,0.6,1.6,0.5,2.5v96.3l0.1,56.1c0,6.4-5.2,11.6-11.6,11.6
		c-6.4,0-11.6-5.2-11.6-11.6v-52.3c-4.4-0.1-7.9-3.8-7.9-8.2V168.4z M212.9,181.3c-2.8,3.8-6.2,6.6-9.9,8.4l5.7,85.4
		c0.3,4.1-1.2,8.3-4,11.3c-2.8,3.1-6.8,4.8-11,4.8c-4.1,0-8.2-1.8-11-4.8s-4.3-7.1-4-11.3l5.7-85.4c-3.7-1.8-7.1-4.6-9.9-8.4
		c-4.8-6.5-7.5-15-7.5-24s2.7-17.5,7.5-24c5-6.8,11.9-10.5,19.3-10.5c7.3,0,14.2,3.7,19.3,10.5c4.8,6.5,7.3,15,7.3,24
		S217.7,174.8,212.9,181.3z M243.7,275.4l5.4-81.4h-0.7c-6.3,0-11.4-5.1-11.4-11.4v-55.9c0-2.2,1.7-3.9,3.9-3.9
		c2.2,0,3.9,1.8,3.9,3.9v43.9h9.8v-43.9c0-2.2,1.8-3.9,3.9-3.9c2.2,0,3.9,1.8,3.9,3.9v43.9h9.8v-43.9c0-2.2,1.8-3.9,3.9-3.9
		c2.1,0,3.8,1.7,3.9,3.9v55.9c0,6.3-5.1,11.4-11.4,11.4h-0.7l5.4,81.4c0.2,4.1-1.2,8.1-4,11.1s-6.7,4.7-10.8,4.7
		c-4.1,0-8-1.7-10.8-4.7C244.9,283.5,243.4,279.5,243.7,275.4z"/>
	<path class="st0" d="M399.6,322.1c-19.4,0-35.2,15.8-35.2,35.2c0,1.4,0.1,2.5,0.1,4.6c0,30.7-26.7,51.6-51.7,50.1l20.2,35.8
		l18.8,33.1c11.5,20.1,10.5,19.9,12.3,19.9c2.6,0,0.5,0,26.2-57.2c2.7-6.2,8.7-10.2,15.5-10.2c2.2,0-0.4-0.1,62.9,8.2
		c1.4,0.2,2.2-1.1,2.2-1.9c0-0.9,3.9,6.6-66.2-117.5C403.8,322.3,400.6,322.1,399.6,322.1z"/>
	<path class="st0" d="M215,383.4c-0.7,0.7-1.4,1.4-2,2.1c-0.3,0.4-0.7,0.7-1,1.1c-11.1,11.3-26.5,12.9-38.9,7.7
		c12.5,5.4,28.1,3.8,39.2-7.7c0.3-0.4,0.7-0.7,1-1.1c0.7-0.7,1.3-1.4,2-2.1c17-16.9,43.2-19,62.5-6.5
		C258.4,364.3,232.1,366.3,215,383.4z"/>
	<path class="st0" d="M311.9,219.5H327v-85.3c-9.9,8.5-15.6,20.8-15.6,34.2V219C311.4,219.3,311.6,219.5,311.9,219.5z"/>
	<path class="st0" d="M319.4,279.6c0,2.1,1.7,3.8,3.8,3.8s3.8-1.7,3.8-3.8l0.1-52.3h-7.7V279.6z"/>
	<path class="st0" d="M193.7,130.5c-10.5,0-19.1,12-19.1,26.8c0,12.7,6.4,23.3,14.8,26.1c0.1,0,0.2,0.1,0.3,0.1
		c1.3,0.4,2.6,0.6,4,0.6c10.6,0,19.2-12.1,19.1-26.8C212.8,142.5,204.2,130.5,193.7,130.5z"/>
	<path class="st0" d="M195.6,191.8c-0.6,0.1-1.2,0.1-1.8,0.1c-0.6,0-1.2,0-1.8-0.1l-5.6,83.8c-0.1,2,0.6,4,2,5.5
		c1.4,1.5,3.3,2.3,5.4,2.3c2.1,0,4-0.8,5.4-2.3s2.1-3.5,2-5.5L195.6,191.8z"/>
	<path class="st1" d="M212,386.6c0.3-0.4,0.7-0.7,1-1.1c0.6-0.7,1.3-1.4,2-2.1c17.1-17.1,43.4-19.1,62.8-6.5c3.6,2.3,7,5.2,10.1,8.6
		c2.3,2.5,4.7,4.6,7.3,6.3c14.3,9,32.6,6.1,43.7-5c6.4-6.4,10.5-15.6,10-26.7c-0.7-15,5.1-28.5,14.6-38c8.7-8.5,20.1-14,32.6-14.8
		c5.9-0.4,9.6,0.7,16.7-1c6.4-1.5,11.9-4.8,16.1-9.2c12.8-13.2,14.8-36.3-1.5-51.1c-21.4-19.3-22.1-52.5-1.9-72.7
		c0.7-0.7,1.3-1.3,2-2c0.4-0.3,0.7-0.7,1.1-1c20.3-20,9.1-53.4-16.3-59.3c-3.1-0.7-6.5-1-10-0.8c-6.6,0.3-13-0.6-19-2.8
		c-10.1-3.5-18.9-10.1-25.1-18.9c0.2,0.2,0.4,0.4,0.6,0.6c-0.2-0.2-0.4-0.5-0.5-0.7l-0.1-0.1c-1.1-1.2-2.3-3-3.3-5.5
		c-0.4-0.8-0.8-1.6-1.2-2.4s-0.6-1.7-0.6-2.5c-0.3-0.9-0.6-1.8-0.8-2.7c-0.5-1.8-0.9-3.6-1.3-5.3c-0.2-0.9-0.3-1.7-0.5-2.6
		c-0.2-1.3-0.4-2.5-0.6-3.7C348.8,55.3,349,49,349,49c-2.7-16.2-16.5-27.2-31.5-28.8c-1.5-0.2-3-0.2-4.5-0.2
		c-0.8,0.1-1.6,0.1-2.4,0.2c-0.2,0-0.4,0-0.5,0c-0.2,0-0.4,0.1-0.7,0.1c-0.4,0.1-0.8,0.1-1.2,0.2c-2.4,0.5-4.8,1.1-7.1,2.1
		c-1.5,0.7-3,1.4-4.5,2.3c-2.9,1.8-5.7,4.1-8.3,6.9c-3.1,3.4-6.6,6.3-10.3,8.7c-3,1.9-6.2,3.5-9.4,4.7c-1.6,0.7-3.2,1.2-4.9,1.6
		c-1.6,0.4-3.3,0.8-5,1c-1.7,0.2-3.4,0.4-5.1,0.5c-0.9,0.1-1.7,0.1-2.6,0.1c-0.1,0-0.1,0-0.2,0c0,0-0.1,0-0.1,0
		c-6.8,0-13.7-1.4-20-4.1c-1.6-0.7-3.2-1.5-4.7-2.3c-1.5-0.9-3-1.8-4.5-2.8c-2.9-2.1-5.6-4.5-8.1-7.3c-3.3-3.6-6.8-6.2-10.2-8
		c-1.1-0.6-2.3-1.1-3.4-1.5c-1.7-0.6-3.3-1.1-4.9-1.5c-1.1-0.2-2.1-0.4-3.1-0.5c-0.2,0-0.3,0-0.5,0c-1.2-0.1-2.3-0.1-3.4-0.2
		c0,0,0,0-0.1,0c-6,0-12.1,1.6-17.5,4.5c-1,0.5-2,1.1-2.9,1.7c-0.9,0.6-1.8,1.3-2.7,2c-0.5,0.4-0.9,0.7-1.3,1.1
		c-0.8,0.8-1.6,1.6-2.4,2.4s-1.5,1.7-2.2,2.6c-4.1,5.6-6.6,12.5-6.6,20.8c0,0.6,0,1.2,0,1.7c0,0.1,0,0.3,0,0.5c0,0.4,0,0.8,0,1.1
		s0,0.7,0,1.2c0,5.4-0.8,10.6-2.4,15.4c-2.1,6.3-5.3,12-9.5,17c-0.7,0.8-1.3,1.5-2,2.2c-1.1,1.2-2.3,2.3-3.6,3.4
		c-0.8,0.7-1.6,1.4-2.4,2c-1.2,0.9-2.4,1.7-3.6,2.5c-1.5,0.9-2.9,1.7-4.4,2.5c-1.5,0.7-3.1,1.4-4.6,2c-1.5,0.6-3.2,1.2-4.8,1.6
		c-4.3,1.1-8.9,1.7-13.6,1.7c-0.8,0-1.5,0-2.3-0.1c-0.2,0-0.4,0-0.6,0c-0.3,0-0.7,0-1,0c-0.1,0-0.3,0-0.4,0c-0.7,0-1.4,0-2.1,0.1
		c-8.8,0.5-16.3,4.2-21.9,9.7c-13.3,13.2-15.7,36.6,0.8,51.7c21.4,19.2,22.1,52.4,2.1,72.6c-0.7,0.7-1.4,1.4-2.1,2
		c-0.4,0.3-0.8,0.7-1.1,1c-18.4,18-11.3,47.3,9.5,57.1c4.4,2,9.3,3.2,14.8,3.2c11,0,20.7,2.3,28.6,6.5c17.6,9,27.3,26.5,26.4,46.3
		c-0.7,16.6,8.7,28.8,21.1,34.2C185.5,399.5,200.9,397.9,212,386.6z M110.7,243.4c0,0-0.1-0.2-0.1-0.5c-0.1-0.1-0.1-0.2-0.1-0.3
		c-0.1-0.5-0.3-1.3-0.5-2.3c-0.3-1.7-0.7-3.9-1.1-6.5c-0.1-0.7-0.3-1.5-0.4-2.3c-0.4-2.7-0.9-5.7-1.3-8.7c-0.2-1.6-0.4-3.3-0.6-4.9
		c0-0.4-0.1-0.8-0.1-1.2c-0.3-2.7-0.4-5.2-0.4-7.2v-0.1c0,0,0,0,0-0.1c-1.4-81.1,64.2-147.2,144.8-147.2c7.5,0,14.8,0.6,22,1.7
		c4.8,0.7,9.5,1.7,14.1,2.9c2.3,0.6,4.6,1.2,6.9,2c5.7,1.8,11.2,3.9,16.5,6.3c13.9,6.3,26.6,14.7,37.9,24.8
		c6,5.5,11.6,11.4,16.6,17.8c0.7,0.9,1.4,1.9,2.1,2.8c1.3,1.9,2.7,3.8,4,5.7c0.6,0.9,1.3,1.9,1.9,2.9c1.8,2.9,3.6,5.9,5.3,9
		c5,9.3,9.1,19.1,12,29.4c1.3,4.6,2.3,9.3,3.2,14c1.5,8.3,2.3,16.9,2.3,25.6c0,39.9-16.3,76.1-42.5,102.3
		c-22.9,22.9-53.5,38.2-87.5,41.7c-4.9,0.5-9.8,0.7-14.8,0.7C184.9,351.8,127.2,307.2,110.7,243.4z"/>
	<path class="st2" d="M265.7,351.1c34-3.5,64.6-18.8,87.5-41.7c26.2-26.2,42.5-62.4,42.5-102.3c0-8.7-0.8-17.3-2.3-25.6
		c-0.9-4.7-1.9-9.4-3.2-14c-2.9-10.3-7-20.1-12-29.4c-1.7-3.1-3.5-6.1-5.3-9c-0.6-1-1.3-2-1.9-2.9c-1.3-1.9-2.7-3.8-4-5.7
		c-0.7-0.9-1.4-1.9-2.1-2.8c-5-6.4-10.6-12.3-16.6-17.8c-11.3-10.1-24-18.5-37.9-24.8c-5.3-2.4-10.9-4.5-16.5-6.3
		c-2.3-0.7-4.6-1.4-6.9-2c-4.6-1.2-9.3-2.2-14.1-2.9c-7.2-1.1-14.5-1.7-22-1.7c-80.6,0-146.1,66.2-144.8,147.2c0,0.1,0,0.1,0,0.1
		v0.1c0,1.9,0.1,4.4,0.4,7.2c0,0.4,0.1,0.8,0.1,1.2c0.2,1.6,0.4,3.3,0.6,4.9c0.4,2.9,0.9,5.9,1.3,8.7c0.1,0.8,0.3,1.6,0.4,2.3
		c0.4,2.6,0.8,4.8,1.1,6.5c0.2,1,0.3,1.8,0.5,2.3c0,0.1,0,0.2,0.1,0.3c0.1,0.3,0.1,0.5,0.1,0.5c16.5,63.8,74.2,108.4,140.2,108.4
		C255.9,351.8,260.8,351.5,265.7,351.1z M125.7,240.5c0-0.3-0.1-0.7-0.3-1c-0.1-0.4-0.3-0.7-0.4-1c-2.4-7-3.7-27-3.7-27
		C118.8,137.8,178.1,77.2,251,77.2c71.5,0,129.7,58.2,129.7,129.7S322.5,336.6,251,336.6C192.3,336.6,140.8,297.2,125.7,240.5z"/>
	<path class="st2" d="M420.5,319.7c34.4-11.6,46.8-58.2,17.2-84.9c-15.6-14.1-15.4-38.4,0-52.3c10.8-9.7,16.7-22.8,16.7-36.9
		c0-27.9-22.6-52.2-52.9-50.6c-14.6,0.7-28-7.6-34-20.8l-0.2,7.3l0.2-7.5c0,0-3.3-17-3.7-24.7c0.2-0.9,0.3-1.9,0.1-2.9
		c0,0,0,0.1,0,0.1c0-0.1,0-0.2,0-0.3c0.1-0.4,0-0.7-0.2-0.9C356,5.8,305.2-9.5,277,21.7c-14,15.5-38.3,15.5-52.3,0
		c-20-22.2-52.1-21.3-71.8-3c-11.2,10.4-16.5,24.7-15.7,39.2c1,21-16.1,38-37,37c-14.9-0.8-29.1,4.7-39.2,15.7
		c-18.4,19.9-19.1,51.9,3,71.9c15.4,13.9,15.6,38.2,0,52.3c-10.8,9.7-16.7,22.8-16.7,36.9c0,21,13.2,41,33.9,48L17.9,431.5
		c-6.9,12.2,3.1,27,17,25.1c61.7-7.6,61.5-9.4,62.6-6.9l24.4,56.1c5.6,12.9,23.5,13.7,30.3,1.6l56.5-100c5.9-2.8,11.3-6.8,15.9-12
		c14-15.5,38.3-15.5,52.3,0c4.6,5.1,10,9.1,15.9,12l22.9,40.4l0,0l23.5,41.7l0,0l10.1,17.9c6.9,12.2,24.8,11.1,30.3-1.6
		c25.2-56.5,23.7-57.6,26.4-57.2c63.7,8.4,60.8,8.2,62.9,8.2c9.3,0,16.9-7.6,16.9-17C485.9,432,487,438.8,420.5,319.7z M137.4,501
		c-2.3-0.1-0.2,0.7-26-57.2c-2.9-6.6-9.9-11-17.8-10c-62.2,7.7-61.1,9.2-62.5,7.2c-1.4-2-2.6,3.7,65.8-118.6
		c29.5,1.8,41.2,17.2,40.2,36.9c-0.8,14.5,4.4,28.8,15.7,39.2c10.4,9.7,25,14.3,36,13.7C136.4,503.7,139.9,501,137.4,501z
		 M215.3,383.4c-0.7,0.7-1.3,1.4-2,2.1c-0.3,0.4-0.7,0.7-1,1.1c-11.2,11.4-26.7,13.1-39.2,7.7c-12.4-5.3-21.8-17.6-21.1-34.2
		c0.9-19.9-8.8-37.4-26.4-46.3c-7.9-4-17.5-6.4-28.4-6.4c-5.6,0-10.6-1.2-15-3.3c-20.8-9.8-27.9-39.1-9.5-57.1
		c0.3-0.3,0.7-0.7,1.1-1c0.7-0.6,1.4-1.3,2.1-2c20-20.2,19.3-53.4-2.1-72.6c-16.5-15.1-14.1-38.5-0.8-51.7
		c5.6-5.5,13.1-9.2,21.9-9.7c0.7,0,1.4-0.1,2.1-0.1c0.1,0,0.3,0,0.4,0c0.3,0,0.7,0,1,0c0.3,0,0.6,0,0.9,0c0.7,0,1.3,0.1,2,0.1
		c4.7,0.1,9.3-0.5,13.6-1.7c1.6-0.4,3.3-1,4.8-1.6c1.5-0.6,3.1-1.3,4.6-2c1.5-0.8,2.9-1.6,4.4-2.5c1.2-0.8,2.4-1.6,3.6-2.5
		c0.8-0.6,1.6-1.3,2.4-2c1.3-1.1,2.5-2.2,3.6-3.4c0.7-0.7,1.3-1.4,2-2.2c4.2-5,7.4-10.7,9.5-17c1.6-4.8,2.4-10,2.4-15.4
		c0-0.5,0-0.9,0-1.2s0-0.7,0-1.1c0-0.2,0-0.4,0-0.5c0-0.5,0-1.1,0-1.7c0-8.3,2.5-15.2,6.6-20.8c0.7-0.9,1.4-1.8,2.2-2.6
		s1.6-1.6,2.4-2.4c0.4-0.4,0.8-0.7,1.3-1.1c0.9-0.7,1.8-1.4,2.7-2c0.9-0.6,1.9-1.2,2.9-1.7c5.4-2.9,11.5-4.5,17.5-4.5c0,0,0,0,0,0
		c0,0,0,0,0,0c1.1,0,2.2,0.1,3.4,0.2c0.3,0,0.5,0,0.8,0c1,0.1,2,0.3,3.1,0.5c1.6,0.3,3.2,0.8,4.9,1.5c1.1,0.4,2.3,0.9,3.4,1.5
		c3.4,1.8,6.9,4.3,10.2,8c2.5,2.8,5.2,5.2,8.1,7.3c1.4,1,2.9,2,4.5,2.8c1.5,0.9,3.1,1.6,4.7,2.3c6.3,2.8,13.1,4.1,19.8,4.1
		c0.1,0,0.1,0,0.2,0c0.9,0,1.7,0,2.6-0.1c1.7-0.1,3.4-0.3,5.1-0.5c1.7-0.2,3.4-0.6,5-1c1.7-0.4,3.3-0.9,4.9-1.6
		c3.2-1.2,6.4-2.8,9.4-4.7c3.7-2.4,7.2-5.3,10.3-8.7c2.6-2.8,5.4-5.1,8.3-6.9c1.5-0.9,3-1.6,4.5-2.3c2.3-1,4.7-1.6,7.1-2.1
		c0.4,0,0.8-0.1,1.2-0.2c0.2,0,0.4-0.1,0.7-0.1c0.2,0,0.4,0,0.5,0c0.8-0.1,1.6-0.1,2.4-0.2c0,0,0,0,0,0c1.6-0.1,3.2,0,4.8,0.2
		c15,1.5,28.7,12.6,31.5,28.8c0,0-0.2,6.3,0.9,14.7c0.2,1.2,0.4,2.4,0.6,3.7c0.1,0.8,0.3,1.7,0.5,2.6c0.4,1.7,0.8,3.5,1.3,5.3
		c0.2,0.9,0.5,1.8,0.8,2.7c0.1,0.8,0.3,1.7,0.6,2.5c0.4,0.8,0.8,1.6,1.2,2.4c1,2.5,2.2,4.3,3.3,5.5l0.1,0.1
		c5.8,6.2,12.6-0.3,13.4-1.1l0.1,0.1c0,0-6.8,7.4-13,1.7c-0.2-0.2-0.4-0.4-0.6-0.6c6.1,8.8,14.8,15.4,24.8,18.8
		c6,2.1,12.5,3.1,19,2.8c3.5-0.2,6.8,0.1,10,0.8c25.7,5.7,37,39.3,16.6,59.4c-0.4,0.4-0.8,0.8-1.2,1.1c-0.7,0.6-1.3,1.2-1.9,1.9
		c-20.1,20.2-19.5,53.4,1.9,72.7c16.3,14.8,14.4,37.8,1.5,51.1c-4.3,4.4-9.8,7.8-16.2,9.3c-7.4,1.6-11.1,0.5-17,0.9
		c-12.4,0.8-23.8,6.3-32.2,14.7c-9.6,9.6-15.3,23-14.6,38c0.5,11.1-3.6,20.2-10,26.7c-11.2,11.2-29.6,14.2-44,5
		c-2.6-1.7-5.1-3.8-7.3-6.3c-3-3.4-6.4-6.2-10.1-8.6C258.5,364.4,232.3,366.5,215.3,383.4z M470.9,439.7c0,0.8-0.8,2.1-2.2,1.9
		c-63.3-8.3-60.7-8.2-62.9-8.2c-6.8,0-12.8,4-15.5,10.2c-25.7,57.2-23.6,57.2-26.2,57.2c-1.8,0-0.8,0.2-12.3-19.9L333,447.8
		L312.8,412c25,1.5,51.7-19.4,51.7-50.1c0-2.1-0.1-3.2-0.1-4.6c0-19.4,15.8-35.2,35.2-35.2c1,0,4.2,0.2,5.1,0.1
		C474.8,446.3,470.9,438.8,470.9,439.7z"/>
	<path class="st2" d="M193.8,122.8c-7.4,0-14.3,3.7-19.3,10.5c-4.8,6.5-7.5,15-7.5,24s2.7,17.5,7.5,24c2.8,3.8,6.2,6.6,9.9,8.4
		l-5.7,85.4c-0.3,4.2,1.2,8.3,4,11.3s6.9,4.8,11,4.8c4.2,0,8.2-1.7,11-4.8c2.8-3,4.3-7.2,4-11.3l-5.7-85.4c3.7-1.8,7.1-4.6,9.9-8.4
		c4.8-6.5,7.5-15,7.5-24s-2.5-17.5-7.3-24C208,126.5,201.1,122.8,193.8,122.8z M199.2,281.1c-1.4,1.5-3.3,2.3-5.4,2.3
		c-2.1,0-4-0.8-5.4-2.3c-1.4-1.5-2.1-3.5-2-5.5l5.6-83.8c0.6,0.1,1.2,0.1,1.8,0.1c0.6,0,1.2,0,1.8-0.1l5.6,83.8
		C201.3,277.6,200.6,279.6,199.2,281.1z M193.7,184.1c-1.4,0-2.7-0.2-4-0.6c-0.1,0-0.2-0.1-0.3-0.1c-8.4-2.8-14.8-13.4-14.8-26.1
		c0-14.8,8.6-26.8,19.1-26.8s19.1,12,19.1,26.8C212.9,172,204.3,184.1,193.7,184.1z"/>
	<path class="st2" d="M311.6,227.2v52.3c0,6.4,5.2,11.6,11.6,11.6c6.4,0,11.6-5.2,11.6-11.6l-0.1-56.1v-96.3
		c0.1-0.9-0.1-1.7-0.5-2.5c-1.1-1.8-3.5-2.4-5.3-1.3c-15.8,9.7-25.2,26.6-25.2,45.1V219C303.7,223.4,307.2,227.1,311.6,227.2z
		 M327,279.6c0,2.1-1.7,3.8-3.8,3.8s-3.8-1.7-3.8-3.8v-52.3h7.7L327,279.6z M311.4,168.4c0-13.4,5.7-25.7,15.6-34.2v85.3h-15.1
		c-0.3,0-0.5-0.2-0.5-0.5V168.4z"/>
	<path class="st2" d="M269.3,286.5c2.8-3,4.2-7,4-11.1l-5.4-81.4h0.7c6.3,0,11.4-5.1,11.4-11.4v-55.9c-0.1-2.2-1.8-3.9-3.9-3.9
		c-2.1,0-3.9,1.7-3.9,3.9v43.9h-9.8v-43.9c0-2.1-1.7-3.9-3.9-3.9c-2.1,0-3.9,1.7-3.9,3.9v43.9h-9.8v-43.9c0-2.1-1.7-3.9-3.9-3.9
		c-2.2,0-3.9,1.7-3.9,3.9v55.9c0,6.3,5.1,11.4,11.4,11.4h0.7l-5.4,81.4c-0.3,4.1,1.2,8.1,4,11.1c2.8,3,6.7,4.7,10.8,4.7
		C262.6,291.2,266.5,289.5,269.3,286.5z M248.5,186.2c-2,0-3.7-1.7-3.7-3.7v-4.3h27.4v4.3c0,2-1.7,3.7-3.7,3.7h-15.3H248.5z
		 M251.6,275.9l5.5-82h3.2l5.5,82c-0.1,2-0.8,3.9-2.1,5.3c-1.3,1.4-3.2,2.2-5.1,2.2c-2,0-3.8-0.8-5.1-2.2S251.5,277.9,251.6,275.9z"
		/>
</g>
</svg>
