<?xml version="1.0" encoding="utf-8"?>
<!-- Generator: Adobe Illustrator 19.0.0, SVG Export Plug-In . SVG Version: 6.00 Build 0)  -->
<svg version="1.1" id="Layer_1" xmlns="http://www.w3.org/2000/svg" xmlns:xlink="http://www.w3.org/1999/xlink" x="0px" y="0px"
	 viewBox="0 0 512 512" style="enable-background:new 0 0 512 512;" xml:space="preserve">
<style type="text/css">
	.st0{fill:#E86040;}
	.st1{fill:#2D2D2D;}
</style>
<g>
	<path class="st0" d="M317.5,63.9c0,0-3.3,37.7-42.6,43.3C274.9,107.1,277.9,68.9,317.5,63.9z"/>
	<path class="st0" d="M254.5,26.4c0,0,24.1,29.2-0.1,60.7C254.4,87.1,229.7,57.8,254.5,26.4z"/>
	<path class="st0" d="M59,357.3c0,0,4.9-39.3,44.3-44.3C103.3,313,98.7,352.9,59,357.3z"/>
	<path class="st0" d="M60.3,229.9c0,0,2.2,37.3,42.8,43C103.1,272.9,100.2,236.5,60.3,229.9z"/>
	<path class="st0" d="M22.6,293.3c0,0,29.2-24.1,60.7,0C83.3,293.3,54,318,22.6,293.3z"/>
	<g id="XMLID_43_">
		<g id="XMLID_19_">
			<path id="XMLID_81_" class="st1" d="M124.1,425.4c-7.7,0-15.4-2.9-21.3-8.8c-11.7-11.7-11.7-30.8,0-42.7l105.3-105.3l42.7,42.7
				L145.5,416.6C139.5,422.5,131.8,425.4,124.1,425.4z M208.2,288l-95.7,95.7c-3.1,3.1-4.8,7.2-4.8,11.6c0,4.4,1.8,8.6,4.8,11.6
				c6.4,6.4,16.9,6.4,23.3,0l95.7-95.7L208.2,288z"/>
		</g>
		<g id="XMLID_18_">
			<path id="XMLID_78_" class="st1" d="M293.4,268.8l-42.7-42.7l41.5-41.5c-12.7-14.8-12-37.3,2-51.3l80.2-80.2
				c4.3-4.3,10.2-6.5,16.1-6.2c6,0.3,11.6,3.1,15.4,7.8c6.8,8.3,6,21.1-2,29.1l-55,55.2l0.8,0.8L405.3,84c4.3-4.3,10.2-6.5,16.1-6.2
				s11.6,3.1,15.4,7.8c6.8,8.3,6,21.1-2,29.1l-55.1,55.1l0.8,0.8l55.1-55.1c8-8,20.8-8.9,29.1-2l0,0c4.7,3.8,7.5,9.5,7.8,15.4
				c0.3,6-2,11.9-6.2,16.1L386,225.1c-7.1,7.1-16.7,11.1-26.7,11.1c-9.1,0-17.7-3.2-24.5-9.1L293.4,268.8z M270,226.1l23.3,23.3
				l41.4-41.4l7.5,7.5c4.6,4.6,10.6,7.1,17.1,7.1c6.4,0,12.5-2.5,17.1-7.1l80.2-80.2c1.6-1.6,2.3-3.6,2.2-5.8
				c-0.1-2.1-1.1-4.2-2.8-5.6l0,0c-2.9-2.4-7.8-1.9-10.7,1.2L380.5,190l-20.1-20.2l64.8-64.8c3-3,3.5-7.8,1.2-10.7
				c-1.4-1.8-3.4-2.7-5.6-2.8c-2.1-0.1-4.2,0.7-5.8,2.2l-65.4,65.4l-20.1-20.1l64.8-64.8c3-3,3.5-7.8,1.2-10.7
				c-1.4-1.8-3.4-2.7-5.6-2.8c-2.2-0.1-4.2,0.7-5.8,2.2L304,143c-9.5,9.5-9.5,24.8,0,34.2l7.5,7.5L270,226.1z"/>
		</g>
	</g>
	<g id="XMLID_17_">
		<path id="XMLID_75_" class="st1" d="M368.2,416.3c-8.1,0-15.6-3.1-21.3-8.8L161.1,221.7c-29.5,8.8-65.8-2.2-91.7-28.2
			c-17.3-17.3-28.2-39-30.7-61.1c-2.6-22.6,3.9-43.1,18.3-57.5C71.3,60.5,91.8,54,114.5,56.6c22.1,2.5,43.8,13.5,61.1,30.7
			c26,26,37,62.3,28.2,91.7l185.7,185.7c11.7,11.7,11.7,30.8,0,42.7C383.8,413.2,376.2,416.3,368.2,416.3z M164.7,206l191.9,191.9
			c3.1,3.1,7.2,4.8,11.6,4.8s8.6-1.8,11.6-4.8c6.4-6.4,6.4-16.9,0-23.3L188.1,182.7l1.6-4.1c9.4-25.3-0.1-58-23.6-81.5
			c-30.9-30.8-75.4-36.4-99.4-12.5C55.2,96,50.1,112.4,52.3,130.8c2.1,19,11.7,37.9,26.8,53c23.5,23.5,56.3,33,81.5,23.6L164.7,206z
			"/>
	</g>
	<g id="XMLID_38_">
		<g id="XMLID_16_">
			<path id="XMLID_72_" class="st1" d="M254.4,107.1l-4.9-4.8c-25.1-25.1-25.1-66,0-91.2l4.8-4.8l4.9,4.8c25.1,25.1,25.1,66,0,91.2
				L254.4,107.1z M254.3,26.4c-6.5,8.7-10.1,19.2-10.1,30.4c0,11,3.5,21.6,10.1,30.4C267.7,69.1,267.7,44.3,254.3,26.4z"/>
		</g>
		<g id="XMLID_15_">
			<path id="XMLID_69_" class="st1" d="M248.2,121.2h-6.8c-35.5,0-64.4-28.9-64.4-64.4v-6.8h6.8c35.5,0,64.4,28.9,64.4,64.4V121.2z
				 M191.2,64.1c3.2,22.2,20.8,39.6,42.8,42.8C230.8,84.9,213.2,67.3,191.2,64.1z"/>
		</g>
		<g id="XMLID_14_">
			<path id="XMLID_66_" class="st1" d="M267.4,121.2h-6.8v-6.8c0-35.5,28.9-64.4,64.4-64.4h6.8v6.8
				C331.8,92.2,302.9,121.2,267.4,121.2z M317.6,64.1c-22.2,3.2-39.6,20.8-42.8,42.8C296.9,103.7,314.4,86.1,317.6,64.1z"/>
		</g>
	</g>
	<g id="XMLID_34_">
		<g id="XMLID_13_">
			<path id="XMLID_63_" class="st1" d="M457.8,316c-16.5,0-33-6.2-45.6-18.8l-4.8-4.9l4.9-4.9c25.1-25.1,66-25.1,91.2,0l4.8,4.9
				l-4.8,4.9C490.8,309.7,474.3,316,457.8,316z M427.5,292.3c18,13.4,42.8,13.4,60.6,0C470.2,278.9,445.4,278.9,427.5,292.3z"/>
		</g>
		<g id="XMLID_12_">
			<path id="XMLID_60_" class="st1" d="M400.1,286.1h-6.8v-6.8c0-35.5,28.9-64.4,64.4-64.4h6.8v6.8
				C464.7,257.2,435.7,286.1,400.1,286.1z M450.4,229c-22.2,3.2-39.6,20.8-42.8,42.8C429.6,268.7,447.2,251.2,450.4,229z"/>
		</g>
		<g id="XMLID_11_">
			<path id="XMLID_57_" class="st1" d="M464.7,369.7h-6.8c-35.5,0-64.4-28.9-64.4-64.4v-6.8h6.8c35.5,0,64.4,28.9,64.4,64.4V369.7z
				 M407.6,312.7c3.2,22.2,20.8,39.6,42.8,42.8C447.2,333.4,429.6,315.9,407.6,312.7z"/>
		</g>
	</g>
	<g id="XMLID_30_">
		<g id="XMLID_10_">
			<path id="XMLID_54_" class="st1" d="M250.5,512l-4.8-4.8c-12.2-12.2-18.8-28.3-18.8-45.6c0-17.2,6.7-33.4,18.8-45.6l4.8-4.8
				l4.9,4.9c25.1,25.1,25.1,66,0,91.2L250.5,512z M250.4,431.3c-6.5,8.7-10.1,19.2-10.1,30.4c0,11,3.5,21.6,10.1,30.4
				C263.8,474,263.8,449.2,250.4,431.3z"/>
		</g>
		<g id="XMLID_9_">
			<path id="XMLID_51_" class="st1" d="M327.9,468.5h-6.8c-35.5,0-64.4-28.9-64.4-64.4v-6.8h6.8c35.5,0,64.4,28.9,64.4,64.4V468.5z
				 M270.8,411.4c3.2,22.2,20.8,39.6,42.8,42.8C310.4,432.2,293,414.6,270.8,411.4z"/>
		</g>
		<g id="XMLID_8_">
			<path id="XMLID_48_" class="st1" d="M179.9,468.5H173v-6.8c0-35.5,28.9-64.4,64.4-64.4h6.8v6.8
				C244.3,439.5,215.4,468.5,179.9,468.5z M230.1,411.4c-22.2,3.2-39.6,20.8-42.8,42.8C209.3,451,226.9,433.4,230.1,411.4z"/>
		</g>
	</g>
	<g id="XMLID_7_">
		<path id="XMLID_45_" class="st1" d="M52.9,317c-17.2,0-33.4-6.7-45.6-18.8l-4.8-4.8l4.8-4.9c25.1-25.1,66-25.1,91.2,0l4.8,4.9
			l-4.8,4.9C86.2,310.2,70.1,317,52.9,317z M22.6,293.3c8.7,6.5,19.2,10.1,30.4,10.1s21.6-3.5,30.4-10.1
			C65.3,279.9,40.5,279.9,22.6,293.3z"/>
	</g>
	<g id="XMLID_6_">
		<path id="XMLID_41_" class="st1" d="M52.9,370.7H46v-6.8c0-35.5,28.9-64.4,64.4-64.4h6.8v6.8C117.4,341.8,88.4,370.7,52.9,370.7z
			 M103.1,313.7c-22.2,3.2-39.6,20.8-42.8,42.8C82.3,353.3,99.9,335.7,103.1,313.7z"/>
	</g>
	<g id="XMLID_5_">
		<path id="XMLID_37_" class="st1" d="M117.4,287.1h-6.8c-35.5,0-64.4-28.9-64.4-64.4v-6.8H53c35.5,0,64.4,28.9,64.4,64.4V287.1z
			 M60.3,230c3.2,22.2,20.8,39.6,42.8,42.8C99.9,250.8,82.3,233.2,60.3,230z"/>
	</g>
	<g id="XMLID_4_">
		<path id="XMLID_33_" class="st1" d="M125.4,309.3c-8.8,0-16-7.2-16-16s7.2-16,16-16s16,7.2,16,16S134.3,309.3,125.4,309.3z
			 M125.4,290.9c-1.3,0-2.3,1.1-2.3,2.3s1.1,2.3,2.3,2.3s2.3-1.1,2.3-2.3S126.8,290.9,125.4,290.9z"/>
	</g>
	<g id="XMLID_3_">
		<path id="XMLID_29_" class="st1" d="M254.4,145c-8.8,0-16-7.2-16-16s7.2-16,16-16s16,7.2,16,16C270.3,137.8,263.2,145,254.4,145z
			 M254.4,126.7c-1.3,0-2.3,1.1-2.3,2.3c0,1.3,1.1,2.3,2.3,2.3c1.3,0,2.3-1.1,2.3-2.3C256.7,127.7,255.7,126.7,254.4,126.7z"/>
	</g>
	<g id="XMLID_2_">
		<path id="XMLID_25_" class="st1" d="M250.5,405.3c-8.8,0-16-7.2-16-16c0-8.8,7.2-16,16-16c8.8,0,16,7.2,16,16
			C266.5,398.1,259.3,405.3,250.5,405.3z M250.5,387c-1.3,0-2.3,1.1-2.3,2.3c0,1.3,1.1,2.3,2.3,2.3c1.3,0,2.3-1.1,2.3-2.3
			C252.9,388,251.8,387,250.5,387z"/>
	</g>
	<g id="XMLID_1_">
		<path id="XMLID_22_" class="st1" d="M385.5,308.3c-8.8,0-16-7.2-16-16c0-8.8,7.2-16,16-16c8.8,0,16,7.2,16,16
			C401.5,301.1,394.3,308.3,385.5,308.3z M385.5,289.9c-1.3,0-2.3,1.1-2.3,2.3c0,1.3,1.1,2.3,2.3,2.3c1.3,0,2.3-1.1,2.3-2.3
			C387.9,291,386.8,289.9,385.5,289.9z"/>
	</g>
	<path class="st0" d="M190.3,62.5c0,0,38.7,5.4,43.3,44.8C233.7,107.3,194.4,102.3,190.3,62.5z"/>
</g>
</svg>
