<?xml version="1.0" encoding="utf-8"?>
<!-- Generator: Adobe Illustrator 19.0.0, SVG Export Plug-In . SVG Version: 6.00 Build 0)  -->
<svg version="1.1" id="Capa_1" xmlns="http://www.w3.org/2000/svg" xmlns:xlink="http://www.w3.org/1999/xlink" x="0px" y="0px"
	 viewBox="-15 16.2 480.8 480.8" style="enable-background:new -15 16.2 480.8 480.8;" xml:space="preserve">
<style type="text/css">
	.st0{fill:none;}
	.st1{fill:#E86040;}
	.st2{fill:#2D2D2D;}
</style>
<g>
	<path class="st0" d="M312.6,226.7c1.9,0.9,3.7,1.6,5.6,2.3c0.1,0,0.2,0.1,0.3,0.1c12,4.2,24.9,4.2,36.8,0c0.1,0,0.2-0.1,0.3-0.1
		c1.9-0.7,3.8-1.4,5.6-2.3c18.8-9,31.8-28.2,31.8-50.4c0-5.4-0.8-10.8-2.4-16H283.3c-1.6,5.2-2.4,10.6-2.4,16
		C280.9,198.5,293.9,217.7,312.6,226.7z"/>
	<path class="st0" d="M361.9,243.8c-1.6,0.6-3.2,1.1-4.9,1.6c-0.6,0.2-1.3,0.3-1.9,0.5c-1.5,0.4-3,0.8-4.6,1.1
		c-0.8,0.2-1.6,0.3-2.4,0.4c-1.5,0.2-2.9,0.5-4.4,0.6c-1,0.1-2.1,0.1-3.1,0.2c-1.2,0.1-2.4,0.2-3.6,0.2s-2.4-0.1-3.6-0.2
		c-1-0.1-2.1-0.1-3.1-0.2c-1.5-0.1-3-0.4-4.4-0.6c-0.8-0.2-1.6-0.2-2.4-0.4c-1.5-0.3-3.1-0.7-4.6-1.1c-0.6-0.2-1.3-0.3-1.9-0.5
		c-1.7-0.4-3.3-1-4.9-1.6c-0.4-0.1-0.7-0.2-1-0.3l-11.8,44.8h75.4l-11.8-44.8C362.5,243.6,362.2,243.7,361.9,243.8z"/>
	<path class="st0" d="M163.7,223.3c1.5-0.5,3.2-0.9,4.8-1.1c0.7-0.1,1.4-0.1,2.1-0.1c1.4-0.1,2.8-0.1,4.2,0c0.4,0,0.9-0.1,1.3,0
		c0.2,0,0.4,0.1,0.6,0.1c0.1,0,0.2,0,0.2,0v-13.9c0-4.4-3.6-8-8-8c-4.4,0-8,3.6-8.1,8.1v15.9c0.3-0.1,0.6-0.2,0.9-0.3
		C162.4,223.7,163,223.5,163.7,223.3z"/>
	<path class="st0" d="M281.8,440.3H392l-14.3-136h-81.6L281.8,440.3z M304.9,344.3c0-4.4,3.6-8,8-8h48c4.4,0,8,3.6,8,8v24
		c0,17.6-14.4,32-32,32c-17.6,0-32-14.4-32-32V344.3z"/>
	<path class="st0" d="M184.6,244.7c-1.1-1.7-2.5-3.2-4.1-4.3c0-0.1-0.1-0.1-0.1-0.1c-1.3-0.9-2.8-1.5-4.3-1.9
		c-0.1,0-0.2-0.1-0.4-0.1c-1.5-0.3-3-0.4-4.4-0.3c-0.1,0-0.2,0-0.3,0c-1.5,0.2-2.9,0.6-4.3,1.2c-0.1,0.1-0.2,0.1-0.3,0.2
		c-1.4,0.6-2.7,1.5-3.8,2.6c-0.5,0.5-1,1.1-1.4,1.7c-0.3,0.5-0.7,1-1,1.7c0,0.1-0.1,0.1-0.1,0.2c-1.3,2.4-1.9,5.2-1.5,8
		c0.5,4.4,2.9,8.2,6.7,10.4l10.3,6.3l15.2-15.2L184.6,244.7z"/>
	<path class="st0" d="M428.2,360.6c0.7,3.2,2.6,5.9,5.5,7.4s6.2,1.7,9.2,0.5c2.8-1.1,5-3.3,6.1-6.2c1.1-2.9,1-6-0.4-8.7l-4.1-7.9
		l-18.4,4.6L428.2,360.6z"/>
	<polygon class="st0" points="392.4,292.9 420.5,335.1 437,331 395.3,254.6 380.8,248.8 	"/>
	<polygon class="st0" points="272.9,456.3 112.9,456.3 48.9,456.3 0.9,456.3 0.9,472.3 448.9,472.3 448.9,456.3 400.9,456.3 	"/>
	<path class="st0" d="M120.9,408.3c13.2,0,24-10.8,24-24v-16h-128v16c0,13.2,10.8,24,24,24H120.9z"/>
	<path class="st0" d="M293.1,248.8l-15.3,6.1l-30.7,38.4c-2.7,3.4-7.8,4-11.2,1.2L201.5,267l-12.9,12.9l47.3,41.4
		c3,2.6,7.4,2.6,10.4,0.1l35.5-29.6L293.1,248.8z"/>
	<path class="st0" d="M160.9,344.3c0-4.4-3.6-8-8-8H8.9c-4.4,0-8,3.6-8,8c0,4.4,3.6,8,8,8h144C157.3,352.3,160.9,348.7,160.9,344.3z
		"/>
	<path class="st1" d="M288.8,87.2c3.8,0.9,6.4,4.6,6,8.5l-4.9,48.6h94.3l-4.9-48.6c-0.4-3.9,2.2-7.5,6-8.5
		c9.2-2.4,15.7-8.5,15.7-14.9c0-8.7-11-16-24-16c-0.4,0-0.9,0.1-1.3,0.1l-1.3,0.1c-3.4,0.3-6.6-1.7-8-4.8
		c-5.1-11.8-16.6-19.4-29.4-19.4s-24.3,7.6-29.4,19.4c-1.4,3.1-4.6,5-8,4.8l-1.3-0.1c-0.5,0-0.9-0.1-1.4-0.1c-13,0-24,7.3-24,16
		C272.9,78.7,279.4,84.8,288.8,87.2z"/>
	<path class="st1" d="M152.9,136.3h8v-64h-8c-4.4,0-8,3.6-8,8v48C144.9,132.7,148.5,136.3,152.9,136.3z"/>
	<path class="st1" d="M176.9,72.3v64h8c4.4,0,8-3.6,8-8v-48c0-4.4-3.6-8-8-8H176.9z"/>
	<path class="st1" d="M320.9,368.3c0,8.8,7.2,16,16,16s16-7.2,16-16v-16h-32V368.3z"/>
	<polygon class="st1" points="116,424.3 88.9,424.3 88.9,440.3 108,440.3 	"/>
	<polygon class="st1" points="72.9,424.3 45.8,424.3 53.8,440.3 72.9,440.3 	"/>
	<path class="st2" d="M456.9,440.3h-48.8l-11.8-112.6l13.1,19.7l3.2,16.3c1.6,7.8,6.5,14.5,13.5,18.3c4,2.2,8.4,3.2,12.8,3.2
		c3.4,0,6.8-0.6,10-1.9c6.9-2.8,12.4-8.4,15.1-15.4s2.3-14.8-1.1-21.5l-6.8-13.7c0-0.1-0.1-0.1-0.1-0.1v-0.1l-48-88
		c-0.9-1.6-2.3-2.9-4-3.6l-21.7-8.7c16.3-13.2,26.7-33.4,26.7-55.9c0-12.1-3.2-23.9-9-34.6l-4.1-41.3c12.9-5.5,21.1-16.2,21.1-28.2
		c0-17.2-17.1-31.3-38.4-32c-8.5-14.8-24.3-24-41.6-24s-33.1,9.3-41.6,24C274.1,40.9,257,55,257,72.2c0,12,8.3,22.7,21.1,28.2
		l-4.2,41.3c-5.8,10.6-9,22.5-9,34.6c0,22.5,10.4,42.7,26.7,55.9l-21.7,8.7c-1.3,0.5-2.4,1.4-3.3,2.4l-27,33.8L207,251l-8.7-14.5
		c-1.5-2.5-3.4-4.6-5.4-6.5v-21.7c0-10.4-6.7-19.2-16-22.5v-33.5h8c13.2,0,24-10.8,24-24v-48c0-13.2-10.8-24-24-24h-32
		c-13.2,0-24,10.8-24,24v48c0,13.2,10.8,24,24,24h8v33.5c-9.3,3.3-16,12.1-16,22.5v32c-2,4.8-2.9,10-2.2,15.3
		c1.1,9.3,6.4,17.3,14.4,22.1l15.1,9.1l53.2,46.5c8.9,7.8,22,8,31.2,0.4l22.4-18.6l-13.2,125.2h-140l9.4-18.8
		c15-5.8,25.7-20.2,25.7-37.2v-17.5c9.3-3.3,16-12.1,16-22.5c0-13.2-10.8-24-24-24H8.9c-13.2,0-24,10.8-24,24
		c0,10.4,6.7,19.2,16,22.5v17.5c0,17,10.7,31.4,25.7,37.2l9.4,18.8H-7.1c-4.4,0-8,3.6-8,8v32c0,4.4,3.6,8,8,8h464c4.4,0,8-3.6,8-8
		v-32C464.9,443.9,461.3,440.3,456.9,440.3z M448.6,353.6c1.4,2.7,1.5,5.8,0.4,8.7c-1.1,2.9-3.3,5.1-6.1,6.2c-3,1.2-6.3,1-9.2-0.5
		s-4.8-4.2-5.5-7.4l-2.1-10.3l18.4-4.6L448.6,353.6z M395.3,254.6L437,331l-16.5,4.1l-28.1-42.2l-11.6-44.1L395.3,254.6z
		 M377.7,304.3l14.3,136H281.8l14.3-136H377.7z M299.3,288.3l11.8-44.8c0.3,0.1,0.6,0.2,1,0.3c1.6,0.6,3.2,1.2,4.9,1.6
		c0.6,0.2,1.3,0.3,1.9,0.5c1.5,0.4,3.1,0.8,4.6,1.1c0.8,0.2,1.6,0.2,2.4,0.4c1.4,0.2,2.9,0.5,4.4,0.6c1,0.1,2.1,0.1,3.1,0.2
		c1.2,0.1,2.4,0.2,3.6,0.2s2.4-0.1,3.6-0.2c1-0.1,2.1-0.1,3.1-0.2c1.5-0.1,2.9-0.4,4.4-0.6c0.8-0.1,1.6-0.2,2.4-0.4
		c1.6-0.3,3.1-0.7,4.6-1.1c0.6-0.2,1.3-0.3,1.9-0.5c1.7-0.5,3.3-1,4.9-1.6c0.3-0.1,0.6-0.2,1-0.3l11.8,44.8H299.3z M296.9,56.3
		c0.5,0,0.9,0.1,1.4,0.1l1.3,0.1c3.4,0.2,6.6-1.7,8-4.8c5.1-11.8,16.6-19.4,29.4-19.4s24.3,7.6,29.4,19.4c1.4,3.1,4.6,5.1,8,4.8
		l1.3-0.1c0.4,0,0.9-0.1,1.3-0.1c13,0,24,7.3,24,16c0,6.4-6.5,12.5-15.7,14.9c-3.8,1-6.4,4.6-6,8.5l4.9,48.6h-94.3l4.9-48.6
		c0.4-3.9-2.2-7.6-6-8.5c-9.4-2.4-15.9-8.5-15.9-14.9C272.9,63.6,283.9,56.3,296.9,56.3z M280.9,176.3c0-5.4,0.8-10.8,2.4-16h107.3
		c1.6,5.2,2.4,10.6,2.4,16c0,22.2-13,41.4-31.8,50.4c-1.8,0.9-3.7,1.6-5.6,2.3c-0.1,0-0.2,0.1-0.3,0.1c-11.9,4.2-24.8,4.2-36.8,0
		c-0.1,0-0.2-0.1-0.3-0.1c-1.9-0.7-3.7-1.4-5.6-2.3C293.9,217.7,280.9,198.5,280.9,176.3z M192.9,80.3v48c0,4.4-3.6,8-8,8h-8v-64h8
		C189.3,72.3,192.9,75.9,192.9,80.3z M144.9,80.3c0-4.4,3.6-8,8-8h8v64h-8c-4.4,0-8-3.6-8-8V80.3z M160.8,208.4
		c0.1-4.5,3.7-8.1,8.1-8.1c4.4,0,8,3.6,8,8v13.9c0,0-0.1,0-0.2,0c-0.2,0-0.4-0.1-0.6-0.1c-0.4-0.1-0.9,0-1.3,0
		c-1.4-0.1-2.8-0.1-4.2,0c-0.7,0-1.4,0-2.1,0.1c-1.6,0.2-3.3,0.6-4.8,1.1c-0.7,0.2-1.3,0.4-2,0.7c-0.3,0.1-0.6,0.2-0.9,0.3V208.4z
		 M165.3,264c-3.8-2.2-6.2-6-6.7-10.4c-0.4-2.8,0.2-5.6,1.5-8c0-0.1,0.1-0.1,0.1-0.2c0.3-0.7,0.7-1.2,1-1.7c0.4-0.6,0.9-1.2,1.4-1.7
		c1.1-1.1,2.4-2,3.8-2.6c0.1-0.1,0.2-0.1,0.3-0.2c1.4-0.6,2.8-1,4.3-1.2c0.1,0,0.2,0,0.3,0c1.4-0.1,2.9,0,4.4,0.3
		c0.2,0,0.3,0.1,0.4,0.1c1.5,0.4,3,1,4.3,1.9c0,0,0.1,0,0.1,0.1c1.6,1.1,3,2.6,4.1,4.3l6.2,10.4l-15.2,15.2L165.3,264z M246.3,321.4
		c-3,2.5-7.4,2.5-10.4-0.1l-47.3-41.4l12.9-12.9l34.4,27.5c3.4,2.8,8.5,2.2,11.2-1.2l30.7-38.4l15.3-6.1l-11.3,43L246.3,321.4z
		 M8.9,352.3c-4.4,0-8-3.6-8-8c0-4.4,3.6-8,8-8h144c4.4,0,8,3.6,8,8c0,4.4-3.6,8-8,8H8.9z M16.9,384.3v-16h128v16
		c0,13.2-10.8,24-24,24h-80C27.7,408.3,16.9,397.5,16.9,384.3z M45.8,424.3h27.1v16H53.8L45.8,424.3z M88.9,424.3H116l-8,16H88.9
		V424.3z M448.9,472.3H0.9v-16h48h64h160h128h48V472.3z"/>
	<path class="st2" d="M336.9,400.3c17.6,0,32-14.4,32-32v-24c0-4.4-3.6-8-8-8h-48c-4.4,0-8,3.6-8,8v24
		C304.9,385.9,319.3,400.3,336.9,400.3z M352.9,368.3c0,8.8-7.2,16-16,16s-16-7.2-16-16v-16h32V368.3z"/>
	<rect x="72.9" y="256.3" class="st2" width="16" height="40"/>
	<rect x="112.9" y="272.3" class="st2" width="16" height="32"/>
	<rect x="32.9" y="272.3" class="st2" width="16" height="32"/>
	<rect x="72.9" y="224.3" class="st2" width="16" height="16"/>
	<rect x="32.9" y="240.3" class="st2" width="16" height="16"/>
	<rect x="112.9" y="240.3" class="st2" width="16" height="16"/>
</g>
</svg>
