<?xml version="1.0" encoding="utf-8"?>
<!-- Generator: Adobe Illustrator 19.0.0, SVG Export Plug-In . SVG Version: 6.00 Build 0)  -->
<svg version="1.1" id="Layer_1" xmlns="http://www.w3.org/2000/svg" xmlns:xlink="http://www.w3.org/1999/xlink" x="0px" y="0px"
	 viewBox="-15 17 480 480" style="enable-background:new -15 17 480 480;" xml:space="preserve">
<style type="text/css">
	.st0{fill:#E86040;}
	.st1{fill:#2D2D2D;}
</style>
<g>
	<circle class="st0" cx="243.8" cy="89" r="16"/>
	<path class="st0" d="M326,61h-18.2c-8.8,0-16-7.2-16-16v0c0-8.8,7.2-16,16-16H326c8.8,0,16,7.2,16,16v0C342,53.8,334.8,61,326,61z"
		/>
	<polygon class="st0" points="347.3,465.3 332.7,485.3 229.7,485.3 262.3,369 303.7,424 324.7,390 	"/>
	<polygon class="st0" points="225,487 177.7,487 179.9,404.9 208,398.8 	"/>
	<path class="st1" d="M152.3,171.1l-129.7-35c-2.1-0.6-4.2-0.9-6.4-0.9c-12.1-0.1-22.3,8.9-23.9,20.9s6,23.3,17.6,26.4l126.9,34.3
		c0.5,39.3,27,73.6,64.9,83.9L325.4,334c22.5,6.1,46.6,3,66.8-8.6c20.2-11.6,35-30.8,41.1-53.4l3.1-11.6c3.2-12-9.4-24.5-39.7-39.4
		c-31.4-14.6-64.1-26.3-97.6-35C286,182.4,184.6,155.8,152.3,171.1z M14.2,167c-4.3-1.2-6.8-5.6-5.6-9.8s5.6-6.8,9.8-5.6L142,185
		l-2.1,7.7c-0.7,2.6-1.2,5.2-1.7,7.8L14.2,167z M329.6,318.5L206,285.1c-21.8-5.9-39.5-21.7-47.8-42.6c16.6,9.5,34,17.6,52.1,24.1
		c0.9,0.3,1.9,0.5,2.8,0.5c3.9,0,7.2-2.8,7.9-6.6s-1.4-7.6-5.1-8.9c-30.5-11.5-53.3-23.3-62.6-32.3c-0.1-0.1-0.2-0.1-0.3-0.2
		c-0.3-5.4,0.1-10.9,1.1-16.3c18.7,13.5,39.3,24.2,61.2,31.6l3.4,1.3c2.1,0.8,4.1,1.5,6.2,2.3c13.4,4.9,27.7,9.6,42.7,13.9
		c6.1,1.8,10.7,3,12.8,3.6c5.3,1.4,10.6,2.8,15.9,4.1c1.2,0.3,2.4,0.6,3.6,0.9c4.3,1,8.5,2,12.7,3l2.8,0.6c4.7,1.1,9.4,2,14,2.9
		c0.3,0.1,0.6,0.1,1,0.2c15.7,3,30.4,5.2,43.7,6.5h0.4c2.6,0.3,5.3,0.5,7.8,0.7c1.5,0.1,2.9,0.2,4.4,0.3h0.4c4,0.2,7.9,0.4,11.4,0.4
		c5.8,0.1,11.7-0.4,17.5-1.3C403.1,308.7,365.6,328.2,329.6,318.5z M353.7,254.9c-4.1-0.6-8.2-1.3-12.4-2.1l-2.2-0.4
		c-5.5-1-11-2.1-16.7-3.3l-1.4-0.3c-5.1-1.1-10.3-2.3-15.5-3.5l-3.5-0.8c-5.8-1.4-11.6-2.9-17.5-4.5s-11.7-3.2-17.4-4.9
		c-1.1-0.3-2.3-0.7-3.4-1c-5.1-1.6-10.2-3.1-15.1-4.8l-1.4-0.5c-5.5-1.8-10.9-3.7-16.1-5.6l-2.2-0.8c-4-1.5-7.9-3-11.7-4.5
		c-0.9-0.3-1.7-0.7-2.6-1c24.3,3.7,48.3,8.8,71.9,15.3c23.7,6.3,47,14,69.9,23L353.7,254.9z M420.5,256.1c-6,2.3-12.5,3.3-19,2.9
		c-35.2-18.3-72.4-32.5-110.8-42.1c-38.1-11.1-77.3-17.6-116.9-19.4c-5.8-2.9-10.9-7-15-12c8.9-5.5,58.9-4.8,136.1,16.1
		C372.1,222.3,415.6,246.9,420.5,256.1L420.5,256.1z"/>
	<path class="st1" d="M260.9,266.6c-5.2-1.5-10.2-3.1-15.1-4.6c-4.2-1.3-8.7,1-10,5.2s1,8.7,5.2,10c5.1,1.6,10.2,3.2,15.5,4.7
		c0.7,0.2,1.5,0.3,2.3,0.3c4,0,7.4-2.9,7.9-6.9C267.1,271.5,264.7,267.7,260.9,266.6z"/>
	<path class="st1" d="M306.8,278.5c-5-1.1-10.2-2.3-15.4-3.6c-4.3-1-8.5,1.6-9.6,5.9c-1.1,4.2,1.5,8.5,5.7,9.7
		c5.3,1.3,10.6,2.6,15.8,3.7c0.6,0.1,1.2,0.2,1.8,0.2c4.1,0,7.5-3.1,7.9-7.1C313.5,283.1,310.8,279.4,306.8,278.5z"/>
	<path class="st1" d="M275.8,45c0,10.8,6.3,20.6,16,25.2V97c0,4.4,3.6,8,8,8h32c4.4,0,8-3.6,8-8V70.2c11.8-5.6,18.2-18.6,15.3-31.4
		C352.3,26,340.9,17,327.8,17h-24C288.4,17,275.8,29.5,275.8,45z M307.8,89V73h16v16H307.8z M339.8,45c0,6.6-5.4,12-12,12h-24
		c-6.6,0-12-5.4-12-12s5.4-12,12-12h24C334.5,33,339.8,38.4,339.8,45z"/>
	<path class="st1" d="M428,120.5c0.2-2.1-0.4-4.2-1.8-5.9l-25.3-31c-1.3-1.6-3.3-2.7-5.4-2.9c-2.1-0.2-4.2,0.4-5.9,1.8l-31,25.3
		c-3.4,2.8-3.9,7.8-1.2,11.3l25.3,31c1.3,1.6,3.3,2.7,5.4,2.9c0.3,0,0.5,0,0.8,0c1.8,0,3.6-0.6,5.1-1.8l31-25.3
		C426.7,124.6,427.7,122.6,428,120.5z M390.2,133.7L375,115.1l18.6-15.2l15.2,18.6L390.2,133.7z"/>
	<path class="st1" d="M275.8,89c0-17.7-14.3-32-32-32s-32,14.3-32,32s14.3,32,32,32S275.8,106.7,275.8,89z M243.8,105
		c-8.8,0-16-7.2-16-16s7.2-16,16-16s16,7.2,16,16S252.7,105,243.8,105z"/>
	<path class="st1" d="M235.8,137h16v16h-16V137z"/>
	<path class="st1" d="M307.8,121h16v16h-16V121z"/>
	<path class="st1" d="M307.8,153h16v24h-16V153z"/>
	<path class="st1" d="M395.8,161h16v16h-16V161z"/>
	<path class="st1" d="M395.8,193h16v16h-16V193z"/>
	<path class="st1" d="M147.2,397.1l17.8-32l14,7.8l-17.8,32L147.2,397.1z"/>
	<path class="st1" d="M132.7,468.6l7.6-2.5L132.7,468.6l7.7,23l15.2-5.1l-7.7-23c-4.6-13.8-3.2-29,3.9-41.7l-14-7.8
		C128.6,430.7,126.7,450.5,132.7,468.6z"/>
	<path class="st1" d="M343.3,491.5l7.6-23c6-18.1,4.2-37.9-5.1-54.5l-27.2-48.9c-1.8-3.2-5.5-4.7-9-3.8c-3.5,0.9-6,4.1-6,7.7v44
		c0,1.4-0.1,2.9-0.2,4.3c-1.7-6.1-4.1-12-7.2-17.5l-32.6-58.7c-1.8-3.2-5.5-4.8-9-3.9c-3.5,0.9-6,4.1-6,7.7v52.8
		c0,13.8-4.5,27.3-12.8,38.4c-3,4-5.5,8.2-7.7,12.7c-1-1.6-2-3.2-3.2-4.7c-6.7-9-10.4-20-10.4-31.2v-44c0-3.6-2.5-6.8-6-7.7
		c-3.5-0.9-7.2,0.7-9,3.9L172.3,414c-9.2,16.7-11.1,36.4-5.1,54.5l7.7,23c1.1,3.3,4.1,5.5,7.6,5.5h153
		C339.2,497,342.2,494.8,343.3,491.5z M182.6,463.5c-4.6-13.8-3.2-28.9,3.9-41.7l12.2-22V413c0.1,14.7,4.8,29,13.6,40.8
		c4.1,5.4,7,11.7,8.6,18.3c-0.4,2.9-0.7,5.9-0.8,8.9h-31.7L182.6,463.5z M236.1,481c0.7-12.7,5.1-25,12.7-35.2
		c10.4-13.9,16-30.7,16-48v-21.9l17.6,31.7c7.5,13.5,9.8,29.2,6.6,44.3c-0.8,3.8,1.3,7.6,4.9,9.1c3.6,1.4,7.7,0.1,9.8-3.2l0.8-1.4
		c0.5-0.9,1-1.7,1.6-2.5c8.8-11.8,13.6-26.1,13.6-40.8V400l12.3,21.9c7.1,12.8,8.5,27.9,3.9,41.7l-5.8,17.5h-94V481z"/>
	<path class="st1" d="M338.2,372.9l14-7.8l10.7,19.3l-14,7.8L338.2,372.9z"/>
	<path class="st1" d="M379.4,414l-8.4-15.2l-14,7.8l8.4,15.2c4.6,8.2,6.8,17.5,6.5,26.9l16,0.5C388.4,437,385.4,424.8,379.4,414z"/>
	<path class="st1" d="M361.7,486.5l5.3-16l15.2,5.1l-5.3,16L361.7,486.5z"/>
	<path class="st1" d="M172.8,349.4l8-16l14.3,7.2l-8,16L172.8,349.4z"/>
	<path class="st1" d="M449.6,142.7c12-12,13.8-30.8,4.4-44.9l-3.4-5.2l-13.3,8.9l3.4,5.2c5.2,7.8,4.1,18.1-2.4,24.7L449.6,142.7z"/>
	<rect x="307.8" y="73" class="st0" width="16" height="16"/>
	
		<rect x="379.9" y="104.8" transform="matrix(-0.7743 0.6328 -0.6328 -0.7743 769.2808 -40.751)" class="st0" width="24" height="24"/>
</g>
</svg>
