<?xml version="1.0" encoding="utf-8"?>
<!-- Generator: Adobe Illustrator 19.0.0, SVG Export Plug-In . SVG Version: 6.00 Build 0)  -->
<svg version="1.1" id="Capa_1" xmlns="http://www.w3.org/2000/svg" xmlns:xlink="http://www.w3.org/1999/xlink" x="0px" y="0px"
	 viewBox="-18 19 475 475" style="enable-background:new -18 19 475 475;" xml:space="preserve">
<style type="text/css">
	.st0{fill:none;}
	.st1{fill:#E86040;}
	.st2{fill:#2D2D2D;}
</style>
<g>
	<path class="st0" d="M217.1,49h-20.6v20.6C205.8,65.7,213.2,58.2,217.1,49z"/>
	<path class="st0" d="M159.1,100.3h-20.6v20.6C147.8,117,155.2,109.5,159.1,100.3z"/>
	<path class="st0" d="M251.3,100.3h-20.6c3.9,9.2,11.3,16.7,20.6,20.6V100.3z"/>
	<path class="st0" d="M309.3,69.6V49h-20.6C292.7,58.2,300.1,65.7,309.3,69.6z"/>
	<path class="st0" d="M98.4,405.9l121.1,56.6l121.1-56.6h0v-203H98.4V405.9z M327.6,391.3c0,3.9-2.2,7.4-5.8,9.1l-25.4,11.9
		c-1.4,0.6-2.8,0.9-4.2,0.9c-3.8,0-7.4-2.1-9.1-5.8c-2.3-5-0.2-11,4.8-13.3l19.6-9.2v-21.6c0-5.5,4.5-10,10-10c5.5,0,10,4.5,10,10
		V391.3z M307.6,326.8v-36.5c0-5.5,4.5-10,10-10c5.5,0,10,4.5,10,10v36.5c0,5.5-4.5,10-10,10C312.1,336.8,307.6,332.3,307.6,326.8z
		 M289.6,215.8h28c5.5,0,10,4.5,10,10v28c0,5.5-4.5,10-10,10c-5.5,0-10-4.5-10-10v-18h-18c-5.5,0-10-4.5-10-10
		C279.6,220.3,284.1,215.8,289.6,215.8z M196.1,215.8h46.8c5.5,0,10,4.5,10,10c0,5.5-4.5,10-10,10h-46.8c-5.5,0-10-4.5-10-10
		C186.1,220.3,190.6,215.8,196.1,215.8z M185.1,421.1c2.3-5,8.3-7.2,13.3-4.8l21.1,9.9l21.1-9.9c5-2.3,11-0.2,13.3,4.8
		c2.3,5,0.2,11-4.8,13.3l-25.4,11.9c-1.3,0.6-2.8,0.9-4.2,0.9c-1.4,0-2.9-0.3-4.2-0.9l-25.4-11.9C184.9,432,182.7,426.1,185.1,421.1
		z M111.4,225.8c0-5.5,4.5-10,10-10h28c5.5,0,10,4.5,10,10c0,5.5-4.5,10-10,10h-18v18c0,5.5-4.5,10-10,10c-5.5,0-10-4.5-10-10V225.8
		z M111.4,290.3c0-5.5,4.5-10,10-10c5.5,0,10,4.5,10,10v36.5c0,5.5-4.5,10-10,10c-5.5,0-10-4.5-10-10V290.3z M111.4,363.3
		c0-5.5,4.5-10,10-10c5.5,0,10,4.5,10,10v21.6l19.6,9.2c5,2.3,7.2,8.3,4.8,13.3c-1.7,3.6-5.3,5.8-9.1,5.8c-1.4,0-2.9-0.3-4.2-0.9
		l-25.4-11.9c-3.5-1.6-5.8-5.2-5.8-9.1V363.3z"/>
	<path class="st1" d="M281.3,85.3v87.6v0h28V90.6c-20.3-5.4-36.3-21.4-41.6-41.6h-29.5c-2.1,7.9-5.8,15.1-10.7,21.3h38.8
		C274.6,70.3,281.3,77,281.3,85.3z"/>
	<path class="st1" d="M251.3,172.9v-31c-20.3-5.4-36.3-21.4-41.6-41.6h-29.5c-5.4,20.3-21.4,36.3-41.6,41.6v31H251.3z"/>
	<path class="st2" d="M355.6,172.9h-16.2V34c0-8.3-6.7-15-15-15H181.6c-8.3,0-15,6.7-15,15v36.3h-43c-8.3,0-15,6.7-15,15v87.6H83.4
		c-8.3,0-15,6.7-15,15v227.5c0,5.8,3.4,11.1,8.7,13.6l136.1,63.6c2,0.9,4.2,1.4,6.3,1.4s4.3-0.5,6.4-1.4L361.9,429
		c5.3-2.5,8.6-7.8,8.6-13.6V187.9C370.6,179.6,363.9,172.9,355.6,172.9z M138.6,141.9c20.3-5.4,36.3-21.4,41.6-41.6h29.5
		c5.4,20.3,21.4,36.3,41.6,41.6v31H138.6V141.9z M230.8,100.3h20.6v20.6C242.1,117,234.7,109.5,230.8,100.3z M309.3,49v20.6
		c-9.2-3.9-16.7-11.3-20.6-20.6H309.3z M238.2,49h29.5c5.4,20.3,21.4,36.3,41.6,41.6v82.3h-28v0V85.3c0-8.3-6.7-15-15-15h-38.8
		C232.4,64.1,236.1,56.9,238.2,49z M196.6,49h20.6c-3.9,9.2-11.3,16.7-20.6,20.6V49z M138.6,100.3h20.6
		c-3.9,9.2-11.3,16.7-20.6,20.6V100.3z M340.6,405.9L340.6,405.9l-121.1,56.6L98.4,405.9v-203h242.1V405.9z"/>
	<path class="st2" d="M117.1,400.4l25.4,11.9c1.4,0.6,2.8,0.9,4.2,0.9c3.8,0,7.4-2.1,9.1-5.8c2.3-5,0.2-11-4.8-13.3l-19.6-9.2v-21.6
		c0-5.5-4.5-10-10-10c-5.5,0-10,4.5-10,10v28C111.4,395.2,113.6,398.7,117.1,400.4z"/>
	<path class="st2" d="M121.4,336.8c5.5,0,10-4.5,10-10v-36.5c0-5.5-4.5-10-10-10c-5.5,0-10,4.5-10,10v36.5
		C111.4,332.3,115.8,336.8,121.4,336.8z"/>
	<path class="st2" d="M121.4,263.8c5.5,0,10-4.5,10-10v-18h18c5.5,0,10-4.5,10-10c0-5.5-4.5-10-10-10h-28c-5.5,0-10,4.5-10,10v28
		C111.4,259.4,115.8,263.8,121.4,263.8z"/>
	<path class="st2" d="M196.1,235.8h46.8c5.5,0,10-4.5,10-10c0-5.5-4.5-10-10-10h-46.8c-5.5,0-10,4.5-10,10
		C186.1,231.4,190.6,235.8,196.1,235.8z"/>
	<path class="st2" d="M289.6,235.8h18v18c0,5.5,4.5,10,10,10c5.5,0,10-4.5,10-10v-28c0-5.5-4.5-10-10-10h-28c-5.5,0-10,4.5-10,10
		C279.6,231.4,284.1,235.8,289.6,235.8z"/>
	<path class="st2" d="M317.6,336.8c5.5,0,10-4.5,10-10v-36.5c0-5.5-4.5-10-10-10c-5.5,0-10,4.5-10,10v36.5
		C307.6,332.3,312.1,336.8,317.6,336.8z"/>
	<path class="st2" d="M317.6,353.3c-5.5,0-10,4.5-10,10v21.6l-19.6,9.2c-5,2.3-7.2,8.3-4.8,13.3c1.7,3.6,5.3,5.8,9.1,5.8
		c1.4,0,2.9-0.3,4.2-0.9l25.4-11.9c3.5-1.6,5.8-5.2,5.8-9.1v-28C327.6,357.8,323.2,353.3,317.6,353.3z"/>
	<path class="st2" d="M189.9,434.4l25.4,11.9c1.3,0.6,2.8,0.9,4.2,0.9c1.4,0,2.9-0.3,4.2-0.9l25.4-11.9c5-2.3,7.2-8.3,4.8-13.3
		c-2.3-5-8.3-7.2-13.3-4.8l-21.1,9.9l-21.1-9.9c-5-2.3-11-0.2-13.3,4.8S184.9,432,189.9,434.4z"/>
</g>
</svg>
