<?xml version="1.0" encoding="utf-8"?>
<!-- Generator: Adobe Illustrator 19.0.0, SVG Export Plug-In . SVG Version: 6.00 Build 0)  -->
<svg version="1.1" id="Capa_1" xmlns="http://www.w3.org/2000/svg" xmlns:xlink="http://www.w3.org/1999/xlink" x="0px" y="0px"
	 viewBox="213 -212.8 937.8 937.8" style="enable-background:new 213 -212.8 937.8 937.8;" xml:space="preserve">
<style type="text/css">
	.st0{fill:#E86040;stroke:#2D2D2D;stroke-width:29;stroke-miterlimit:10;}
	.st1{fill:none;stroke:#2D2D2D;stroke-width:29;stroke-miterlimit:10;}
</style>
<path class="st0" d="M757.1,203h93.5c78.4-43,107.7-120.7,118-160.7C972,28.6,962.9,15,949,13C827.5-4.5,766.3,29.4,723.4,97.6
	c3,7.2,5.9,14.4,8.8,21.8c6.5,17.3,10.8,37.8,12.8,57.2c58.8-33.4,109.6-75.6,127.8-87.7C859.5,103.4,822.8,148.4,757.1,203z"/>
<path class="st0" d="M230.2-67.7c10.5,56.4,52.2,206.9,205.3,270.7h183.4C561,97.3,456.2,45.4,409.4,16.7
	c35.7,6.5,146,44.4,246.7,149.3c7.7,8.1,23.5,25.2,24,25C668.6,25.8,515.5-108.2,353.6-108.2c-32.9,0-68.2,4.2-105.7,13.3
	C235.7-92,227.9-80,230.2-67.7z"/>
<path class="st1" d="M1134,273.8c0-13-10.6-23.6-23.6-23.6H382.8c-13,0-23.6,10.6-23.6,23.6v2.8c0,189.9,154,343.8,343.8,343.8h87
	c189.9,0,343.8-154,343.8-343.8L1134,273.8L1134,273.8z"/>
</svg>
